<svg preserveAspectRatio="none" width="100%" height="100%" overflow="visible" style="display: block;" viewBox="0 0 30 27.2727" fill="none" xmlns="http://www.w3.org/2000/svg">
<g id="Social Media Icon">
<path id="Vector" d="M6.81641 10.0192H10.0835V21.1271H6.81641V10.0192ZM8.44013 8.71236H8.42183C7.44695 8.71236 6.81641 7.98577 6.81641 7.07818C6.81641 6.15099 7.46655 5.44531 8.45908 5.44531C9.45291 5.44531 10.0652 6.15099 10.0835 7.07818C10.0835 7.98511 9.45291 8.71236 8.44013 8.71236ZM22.4982 21.1271H19.2312V15.1818C19.2312 13.7456 18.4308 12.7655 17.1455 12.7655C16.1647 12.7655 15.6342 13.4267 15.3767 14.0657C15.2826 14.2944 15.3107 14.9269 15.3107 15.2464V21.1271H12.0437V10.0192H15.3107V11.7285C15.7818 10.9993 16.5195 10.0192 18.4066 10.0192C20.7445 10.0192 22.4976 11.4893 22.4976 14.7721L22.4982 21.1271Z" fill="var(--fill-0, #E8E8E8)"/>
</g>
</svg>
