<svg preserveAspectRatio="none" width="100%" height="100%" overflow="visible" style="display: block;" viewBox="0 0 19.0909 19.0909" fill="none" xmlns="http://www.w3.org/2000/svg">
<g id="Frame">
<path id="Vector" d="M17.1808 13.4815C17.0217 14.3168 16.3455 14.9531 15.5103 15.0724C14.1978 15.2713 12.0103 15.5099 9.54439 15.5099C7.11825 15.5099 4.93075 15.2713 3.57848 15.0724C2.74325 14.9531 2.06712 14.3168 1.90803 13.4815C1.74893 12.5668 1.58984 11.2145 1.58984 9.54403C1.58984 7.87358 1.74893 6.52131 1.90803 5.60653C2.06712 4.77131 2.74325 4.13494 3.57848 4.01563C4.89098 3.81676 7.07848 3.57812 9.54439 3.57812C12.0103 3.57812 14.158 3.81676 15.5103 4.01563C16.3455 4.13494 17.0217 4.77131 17.1808 5.60653C17.3398 6.52131 17.5387 7.87358 17.5387 9.54403C17.4989 11.2145 17.3398 12.5668 17.1808 13.4815Z" fill="var(--fill-0, #E8E8E8)"/>
<path id="Vector_2" d="M7.95312 12.3338V6.76562L12.7259 9.54972L7.95312 12.3338Z" fill="var(--fill-0, #111111)"/>
</g>
</svg>
