<svg width="200" height="159" viewBox="0 0 200 159" fill="none" xmlns="http://www.w3.org/2000/svg">
<path d="M61.9561 90.7111V90.3635L62.6706 90.1202C63.147 89.981 63.4566 89.7725 63.5995 89.4944C63.7662 89.2163 63.8495 88.8454 63.8495 88.382V70.1662C63.8495 69.7027 63.7662 69.3319 63.5995 69.0538C63.4328 68.7757 63.1112 68.5555 62.6349 68.3933L61.9561 68.1152V67.7676H70.6378C74.1867 67.7676 76.7472 68.4049 78.3191 69.6795C79.915 70.931 80.7129 72.588 80.7129 74.6506C80.7129 75.9716 80.3794 77.1883 79.7126 78.3007C79.0694 79.39 77.9976 80.259 76.497 80.908C74.9965 81.5569 72.972 81.8813 70.4234 81.8813H69.2087V88.2777C69.2087 89.1816 69.6732 89.7726 70.6021 90.0506L71.6738 90.3635V90.7111H61.9561ZM69.2087 81.186H70.5663C71.7334 81.186 72.6861 81.0006 73.4245 80.6299C74.1629 80.259 74.7107 79.6101 75.0679 78.6831C75.4253 77.7561 75.6039 76.4699 75.6039 74.8244C75.6039 73.1558 75.4015 71.858 74.9965 70.931C74.6154 70.004 74.0438 69.3667 73.2816 69.019C72.5194 68.6482 71.5667 68.4628 70.4234 68.4628H69.2087V81.186ZM90.427 91.2325C88.6169 91.2325 87.0449 90.8733 85.711 90.1549C84.3773 89.4133 83.3412 88.3704 82.6027 87.0262C81.8882 85.682 81.531 84.1061 81.531 82.2985C81.531 80.4907 81.9121 78.9265 82.6742 77.6055C83.4603 76.2845 84.5202 75.2648 85.8539 74.5463C87.2116 73.8279 88.736 73.4687 90.427 73.4687C92.1181 73.4687 93.6306 73.8279 94.9644 74.5463C96.2983 75.2416 97.3463 76.2497 98.1084 77.5707C98.8945 78.8917 99.2874 80.4676 99.2874 82.2985C99.2874 84.1293 98.9183 85.7169 98.1798 87.0609C97.4653 88.382 96.4412 89.4133 95.1073 90.1549C93.7973 90.8733 92.2372 91.2325 90.427 91.2325ZM90.427 90.5373C91.2607 90.5373 91.9276 90.3056 92.4278 89.842C92.928 89.3786 93.2853 88.5558 93.4996 87.3738C93.7378 86.1919 93.8569 84.5233 93.8569 82.3679C93.8569 80.1896 93.7378 78.5093 93.4996 77.3274C93.2853 76.1454 92.928 75.3227 92.4278 74.8592C91.9276 74.3957 91.2607 74.164 90.427 74.164C89.5934 74.164 88.9146 74.3957 88.3906 74.8592C87.8905 75.3227 87.5212 76.1454 87.2831 77.3274C87.0687 78.5093 86.9615 80.1896 86.9615 82.3679C86.9615 84.5233 87.0687 86.1919 87.2831 87.3738C87.5212 88.5558 87.8905 89.3786 88.3906 89.842C88.9146 90.3056 89.5934 90.5373 90.427 90.5373ZM107.038 91.2325C105.87 91.2325 104.822 91.0935 103.893 90.8153C102.965 90.5605 102.107 90.236 101.321 89.842L101.357 85.7053H101.714L102.929 87.791C103.453 88.718 104.024 89.4133 104.644 89.8767C105.287 90.3172 106.097 90.5373 107.073 90.5373C108.217 90.5373 109.134 90.2939 109.824 89.8073C110.539 89.2974 110.896 88.6253 110.896 87.791C110.896 87.0262 110.646 86.4005 110.146 85.9139C109.646 85.4272 108.717 84.9868 107.359 84.5928L105.859 84.141C104.406 83.7238 103.262 83.0748 102.429 82.1942C101.595 81.3135 101.178 80.2359 101.178 78.9612C101.178 77.4317 101.797 76.1338 103.036 75.0678C104.275 74.0017 106.049 73.4687 108.359 73.4687C109.288 73.4687 110.158 73.573 110.967 73.7816C111.801 73.967 112.599 74.2566 113.361 74.6506L113.147 78.405H112.79L111.539 76.2497C111.087 75.4849 110.634 74.9519 110.181 74.6506C109.753 74.3262 109.098 74.164 108.217 74.164C107.407 74.164 106.644 74.3841 105.93 74.8244C105.215 75.2648 104.858 75.8905 104.858 76.7016C104.858 77.4896 105.156 78.1153 105.751 78.5788C106.371 79.0424 107.276 79.4711 108.467 79.8651L110.074 80.317C111.789 80.8269 113.016 81.5337 113.754 82.4375C114.493 83.3182 114.862 84.3843 114.862 85.6357C114.862 87.3275 114.171 88.6833 112.79 89.703C111.432 90.7226 109.515 91.2325 107.038 91.2325ZM123.206 91.2325C121.681 91.2325 120.49 90.8618 119.633 90.1202C118.799 89.3786 118.383 88.1965 118.383 86.5743V74.6854H115.917V74.3378L116.775 74.1987C117.513 74.0365 118.144 73.8047 118.668 73.5035C119.216 73.2022 119.752 72.7966 120.276 72.2868L123.206 69.1233H123.563L123.456 73.9901H127.457V74.6854H123.42V87.2001C123.42 88.0112 123.599 88.6253 123.956 89.0424C124.337 89.4596 124.814 89.6682 125.385 89.6682C125.885 89.6682 126.326 89.5523 126.707 89.3206C127.088 89.0657 127.469 88.7297 127.85 88.3124L128.208 88.6601C127.731 89.448 127.076 90.0737 126.243 90.5373C125.409 91.0008 124.397 91.2325 123.206 91.2325ZM133.971 91.2325C133.114 91.2325 132.387 90.9429 131.792 90.3635C131.197 89.784 130.899 89.0888 130.899 88.2777C130.899 87.4665 131.197 86.7598 131.792 86.1572C132.387 85.5546 133.114 85.2533 133.971 85.2533C134.829 85.2533 135.555 85.5546 136.151 86.1572C136.746 86.7598 137.044 87.4665 137.044 88.2777C137.044 89.0888 136.746 89.784 136.151 90.3635C135.555 90.9429 134.829 91.2325 133.971 91.2325Z" fill="white"/>
</svg>
