<svg width="200" height="159" viewBox="0 0 200 159" fill="none" xmlns="http://www.w3.org/2000/svg">
<g clip-path="url(#clip0_961_15691)">
<path d="M106.704 70.0366L108.569 63.7619L110.479 70.0366H106.704ZM116.003 75.5176L111.109 60.7083C111 60.3818 110.875 60.1672 110.736 60.0666C110.596 59.9661 110.37 59.9149 110.06 59.9149H107.356C107.045 59.9149 106.817 59.97 106.669 60.078C106.521 60.1862 106.401 60.397 106.307 60.7083L101.367 75.5176C101.304 75.5956 101.274 75.7493 101.274 75.9828C101.274 76.3411 101.492 76.5201 101.927 76.5198H103.954C104.14 76.5198 104.292 76.5122 104.408 76.4971C104.525 76.4818 104.618 76.442 104.688 76.3794C104.758 76.3185 104.82 76.2237 104.875 76.1002C104.941 75.9401 104.999 75.7767 105.049 75.6106L105.818 73.0219H111.389L112.18 75.5633C112.243 75.7812 112.305 75.9527 112.367 76.0775C112.429 76.2006 112.499 76.2974 112.577 76.368C112.654 76.4383 112.748 76.4813 112.857 76.4971C112.965 76.512 113.105 76.5198 113.276 76.5198H115.443C115.878 76.5198 116.096 76.3414 116.096 75.9828C116.096 75.8745 116.092 75.8003 116.085 75.7626C116.076 75.7228 116.05 75.6411 116.003 75.5176ZM113.6 81.48H112.038C111.634 81.4801 111.366 81.5384 111.234 81.6547C111.102 81.7723 111.037 82.0096 111.037 82.3664V91.1575L106.422 82.3435C106.235 81.9697 106.053 81.7325 105.874 81.632C105.695 81.5312 105.381 81.48 104.93 81.48H103.485C103.081 81.4801 102.813 81.5384 102.681 81.6547C102.549 81.7723 102.483 82.0096 102.483 82.3664V97.1985C102.483 97.5573 102.545 97.7927 102.67 97.9104C102.794 98.0259 103.058 98.0849 103.462 98.0849H105.047C105.45 98.0849 105.719 98.0259 105.851 97.9104C105.982 97.7927 106.049 97.5576 106.049 97.1985V88.3825L110.663 97.2212C110.85 97.5953 111.032 97.8326 111.211 97.9331C111.39 98.0354 111.704 98.0849 112.155 98.0849H113.6C114.004 98.0849 114.271 98.0259 114.404 97.9104C114.536 97.7927 114.602 97.5576 114.602 97.1985V82.3664C114.602 82.0094 114.536 81.7722 114.404 81.6547C114.271 81.5387 114.004 81.48 113.6 81.48ZM121.341 80.0757L125.364 84.0994V104.364H74.6359V84.096L78.6558 80.0761C78.7971 79.9348 78.9092 79.7671 78.9857 79.5824C79.0622 79.3978 79.1016 79.1999 79.1016 79C79.1016 78.8001 79.0622 78.6022 78.9857 78.4176C78.9092 78.2329 78.7971 78.0652 78.6558 77.9239L74.6356 73.904V53.6354H125.365V73.8994L121.341 77.9234C121.2 78.0647 121.087 78.2325 121.011 78.4171C120.934 78.6017 120.895 78.7997 120.895 78.9995C120.895 79.1994 120.934 79.3973 121.011 79.5819C121.087 79.7666 121.2 79.9343 121.341 80.0757H121.341ZM129 50H71V75.6488L74.3512 79L71 82.3512V108H129V82.3512L125.649 79L129 75.6488V50ZM96.7866 94.6327H90.235L97.1341 84.9322C97.2427 84.7764 97.3127 84.6518 97.3443 84.5583C97.3756 84.4659 97.3911 84.3571 97.391 84.2321V82.3664C97.3908 82.0094 97.3245 81.7722 97.1921 81.6547C97.0596 81.5384 96.7907 81.4801 96.3851 81.48H86.4239C86.065 81.48 85.8318 81.5464 85.7226 81.6774C85.6133 81.8103 85.559 82.0854 85.559 82.5068V83.9056C85.559 84.3249 85.6133 84.6021 85.7226 84.7331C85.8315 84.866 86.0653 84.9324 86.4239 84.9322H92.5731L85.7685 94.6327C85.5962 94.8509 85.5104 95.0691 85.5104 95.2854V97.1985C85.5104 97.5573 85.5771 97.7927 85.7093 97.9104C85.8417 98.0259 86.1109 98.0849 86.5164 98.0849H96.7866C97.1452 98.0849 97.3794 98.0184 97.4888 97.8875C97.5973 97.7545 97.6525 97.4793 97.6525 97.0581V95.6595C97.6525 95.2398 97.5973 94.9647 97.4888 94.8321C97.3793 94.6991 97.1452 94.6327 96.7866 94.6327ZM93.737 69.8959C93.737 70.5341 93.6943 71.0668 93.6089 71.4941C93.5236 71.9211 93.3841 72.2684 93.1898 72.5323C92.9957 72.7957 92.7393 72.9823 92.4206 73.0922C92.1021 73.2002 91.7096 73.2553 91.2437 73.2553H89.3331V63.1793H91.2439C92.1296 63.1793 92.7659 63.4413 93.1548 63.9611C93.5429 64.4816 93.737 65.3408 93.7372 66.5385L93.737 69.8959ZM97.0703 63.1563C96.5264 62.0519 95.7844 61.2359 94.8445 60.7083C93.9041 60.179 92.7194 59.9145 91.2903 59.9149H86.5126C86.1085 59.9152 85.8404 59.9734 85.7083 60.0896C85.5764 60.2072 85.5103 60.4444 85.5101 60.8013V75.6333C85.5101 75.9922 85.5766 76.2274 85.7083 76.3453C85.8403 76.4608 86.1085 76.5198 86.5126 76.5198H91.8723C94.4051 76.5201 96.1377 75.4395 97.07 73.2781C97.2825 72.7968 97.4351 72.2914 97.5244 71.773C97.6098 71.2679 97.6524 70.6271 97.6522 69.8505V66.7018C97.6522 65.8152 97.6095 65.1155 97.5241 64.6027C97.4426 64.1014 97.2899 63.6143 97.0703 63.1563Z" fill="white"/>
</g>
<defs>
<clipPath id="clip0_961_15691">
<rect width="58" height="58" fill="white" transform="translate(71 50)"/>
</clipPath>
</defs>
</svg>
