<svg width="200" height="159" viewBox="0 0 200 159" fill="none" xmlns="http://www.w3.org/2000/svg">
<g clip-path="url(#clip0_961_15781)">
<path d="M74.8366 86.1916C73.7534 85.513 72.887 84.5259 72.3437 83.3511C71.7354 82.0295 71.4336 80.582 71.4619 79.1214C71.4323 77.6441 71.7396 76.1802 72.3594 74.8457C72.9158 73.6571 73.7914 72.6552 74.8837 71.957C76.0079 71.2567 77.3037 70.8983 78.6196 70.9237C79.4088 70.9226 80.1945 71.0307 80.9554 71.2452C81.6788 71.4446 82.3623 71.7726 82.9748 72.2142C83.2798 72.4229 83.5515 72.6785 83.7803 72.972C83.9283 73.1843 84.0069 73.4391 84.0047 73.6999C84.0131 73.9106 83.9461 74.1172 83.8162 74.2809C83.7593 74.3532 83.6872 74.4114 83.6052 74.4512C83.5232 74.491 83.4335 74.5112 83.3428 74.5105C83.1319 74.5105 82.7953 74.3291 82.3331 73.9617C81.8242 73.5757 81.2739 73.2506 80.6929 72.9927C80.0606 72.7406 79.3854 72.6204 78.7071 72.639C77.0617 72.639 75.779 73.2146 74.859 74.3658C73.9391 75.517 73.4761 77.1037 73.4701 79.126C73.4701 81.1283 73.9278 82.6836 74.8433 83.792C75.7588 84.9003 77.0362 85.4537 78.6757 85.4522C79.3593 85.4736 80.0401 85.3533 80.6772 85.0985C81.2842 84.8225 81.8694 84.4986 82.4273 84.1295C82.618 84.0009 82.802 83.8838 82.9793 83.7759C83.1061 83.6864 83.2525 83.6304 83.4056 83.6129C83.5013 83.6092 83.5965 83.628 83.684 83.6678C83.7715 83.7076 83.849 83.7674 83.9105 83.8425C84.0373 83.9954 84.1044 84.1908 84.0989 84.3913C84.1038 84.6405 84.0245 84.8838 83.8746 85.0802C83.6242 85.3655 83.3374 85.6149 83.0219 85.8219C82.3968 86.2812 81.6983 86.6254 80.9576 86.8391C80.1769 87.0758 79.3666 87.1949 78.5523 87.1927C77.2469 87.219 75.9601 86.8723 74.8366 86.1916ZM100.191 70.988C100.426 70.9888 100.651 71.0808 100.822 71.2452C100.907 71.3215 100.975 71.4158 101.021 71.5217C101.067 71.6275 101.091 71.7424 101.089 71.8583C101.091 72.0043 101.058 72.1486 100.992 72.2785L92.0666 92.3249C92.002 92.4916 91.8886 92.6337 91.7421 92.732C91.5955 92.8302 91.4228 92.8797 91.2477 92.8737C91.0224 92.8756 90.804 92.794 90.6329 92.6441C90.5469 92.5754 90.4777 92.4871 90.431 92.3862C90.3842 92.2854 90.3612 92.1747 90.3636 92.0631C90.3652 91.928 90.3975 91.7952 90.4578 91.675L92.7016 86.6738L86.2373 72.2762C86.1765 72.1571 86.1442 72.0249 86.143 71.8904C86.1436 71.7612 86.1738 71.6338 86.2311 71.5186C86.2883 71.4034 86.3711 71.3035 86.4729 71.2268C86.6702 71.0562 86.9191 70.9605 87.1774 70.9559C87.3578 70.9461 87.5363 70.9979 87.6849 71.103C87.8335 71.2081 87.9438 71.3607 87.9986 71.5368L93.6844 84.5773L99.359 71.5782C99.4176 71.4015 99.5301 71.2487 99.68 71.1425C99.8299 71.0362 100.009 70.9821 100.191 70.988ZM125.16 76.9927V86.1273C125.172 86.3934 125.082 86.6535 124.909 86.8529C124.818 86.9456 124.709 87.0177 124.589 87.0648C124.47 87.1119 124.342 87.1328 124.213 87.1261C124.083 87.1349 123.952 87.1151 123.83 87.068C123.708 87.0209 123.597 86.9477 123.504 86.8531C123.412 86.7585 123.34 86.6449 123.294 86.5197C123.248 86.3945 123.229 86.2607 123.237 86.1273V77.1213C123.237 75.5507 122.964 74.4156 122.416 73.716C121.869 73.0164 120.996 72.6666 119.798 72.6666C118.432 72.6666 117.344 73.1396 116.533 74.0857C115.722 75.0317 115.318 76.3016 115.319 77.8952V86.1273C115.332 86.3935 115.241 86.6542 115.068 86.8529C114.977 86.9459 114.868 87.0183 114.748 87.0654C114.629 87.1125 114.5 87.1332 114.372 87.1261C114.242 87.1349 114.111 87.1151 113.989 87.068C113.866 87.0209 113.755 86.9477 113.663 86.8531C113.571 86.7585 113.499 86.6449 113.453 86.5197C113.407 86.3945 113.388 86.2607 113.396 86.1273V77.1213C113.396 75.5507 113.122 74.4156 112.575 73.716C112.027 73.0156 111.157 72.6666 109.956 72.6666C108.591 72.6666 107.503 73.1396 106.694 74.0857C105.885 75.0317 105.479 76.3016 105.478 77.8952V86.1273C105.49 86.3935 105.4 86.6542 105.226 86.8529C105.136 86.9457 105.028 87.0181 104.908 87.0651C104.789 87.1122 104.661 87.133 104.533 87.1261C104.403 87.1349 104.272 87.1151 104.15 87.068C104.027 87.0209 103.916 86.9477 103.824 86.8531C103.731 86.7585 103.66 86.6449 103.614 86.5197C103.568 86.3945 103.549 86.2607 103.557 86.1273V71.9892C103.548 71.853 103.568 71.7164 103.614 71.5883C103.66 71.4601 103.731 71.3433 103.824 71.2452C104.019 71.0671 104.274 70.9748 104.535 70.988C104.659 70.9801 104.783 70.9989 104.899 71.0433C105.015 71.0876 105.12 71.1564 105.209 71.2452C105.374 71.4422 105.459 71.6974 105.444 71.957V73.8928C105.843 72.9723 106.51 72.2002 107.354 71.6815C108.23 71.1641 109.228 70.9021 110.239 70.9237C112.658 70.9237 114.225 71.9563 114.94 74.0214C115.368 73.068 116.073 72.2732 116.959 71.7458C117.908 71.1854 118.988 70.9011 120.083 70.9237C123.469 70.9237 125.162 72.9467 125.16 76.9927ZM139.819 71.9249C140.866 72.6111 141.698 73.5917 142.215 74.7493C142.809 76.0799 143.1 77.5306 143.068 78.9928C143.099 80.4764 142.808 81.9486 142.215 83.3029C141.702 84.4756 140.87 85.4727 139.819 86.1755C138.754 86.8634 137.515 87.217 136.256 87.1927C135.13 87.2225 134.018 86.9375 133.038 86.3684C132.124 85.8085 131.406 84.967 130.987 83.9642V86.0951C131 86.3614 130.91 86.622 130.736 86.8207C130.645 86.9138 130.537 86.9862 130.417 87.0333C130.297 87.0804 130.169 87.101 130.041 87.094C129.91 87.1028 129.779 87.083 129.657 87.0359C129.535 86.9888 129.424 86.9155 129.331 86.821C129.239 86.7264 129.167 86.6127 129.121 86.4875C129.075 86.3624 129.056 86.2286 129.065 86.0951V65.0476C129.058 64.9144 129.079 64.7813 129.125 64.6565C129.171 64.5318 129.241 64.4179 129.332 64.322C129.425 64.2307 129.535 64.1594 129.656 64.1125C129.776 64.0656 129.905 64.0439 130.034 64.0487C130.162 64.0417 130.29 64.0624 130.41 64.1094C130.53 64.1565 130.639 64.2289 130.729 64.322C130.903 64.5207 130.993 64.7813 130.981 65.0476V74.15C131.399 73.1472 132.117 72.3056 133.032 71.7458C134.011 71.1775 135.124 70.8933 136.249 70.9237C137.509 70.8967 138.749 71.2445 139.819 71.9249ZM139.74 83.7483C140.638 82.6094 141.087 81.028 141.087 79.0043C141.087 76.9805 140.638 75.4152 139.74 74.3084C138.843 73.1985 137.586 72.6444 135.971 72.6459C134.355 72.6474 133.124 73.2031 132.278 74.313C131.416 75.432 130.985 77.0134 130.985 79.0571C130.985 81.1008 131.421 82.6775 132.293 83.7874C133.167 84.8942 134.402 85.4476 136 85.4476C137.598 85.4476 138.844 84.8812 139.74 83.7483ZM146.775 86.869C146.681 86.7717 146.609 86.6553 146.563 86.5275C146.516 86.3997 146.497 86.2633 146.506 86.1273V71.9892C146.497 71.8528 146.516 71.716 146.563 71.5878C146.609 71.4596 146.681 71.3428 146.775 71.2452C146.969 71.0671 147.224 70.9746 147.484 70.988C147.61 70.9806 147.737 70.9995 147.856 71.0438C147.975 71.088 148.085 71.1565 148.177 71.2452C148.266 71.3453 148.335 71.4628 148.379 71.5906C148.423 71.7184 148.441 71.854 148.433 71.9892V86.1273C148.441 86.262 148.423 86.3971 148.38 86.5245C148.336 86.6519 148.268 86.7691 148.179 86.869C148.087 86.9577 147.978 87.0262 147.859 87.0704C147.739 87.1146 147.613 87.1336 147.486 87.1261C147.225 87.1402 146.969 87.0477 146.775 86.869ZM155.259 86.1916C154.186 85.5072 153.329 84.521 152.79 83.3511C152.178 82.0081 151.876 80.5387 151.909 79.0571C151.877 77.5762 152.178 76.1077 152.79 74.7654C153.328 73.5947 154.185 72.6082 155.259 71.9249C156.387 71.2671 157.662 70.9213 158.961 70.9213C160.259 70.9213 161.535 71.2671 162.663 71.9249C163.741 72.602 164.6 73.5903 165.131 74.7654C165.733 76.1106 166.029 77.5779 165.997 79.0571C166.029 80.537 165.733 82.005 165.131 83.3511C164.599 84.5254 163.741 85.5134 162.663 86.1916C161.535 86.8493 160.259 87.1952 158.961 87.1952C157.662 87.1952 156.387 86.8493 155.259 86.1916ZM162.685 83.8035C163.57 82.7058 164.012 81.1237 164.012 79.0571C164.012 77.0348 163.563 75.4588 162.665 74.3291C161.768 73.1993 160.534 72.6344 158.965 72.6344C157.365 72.6344 156.124 73.1993 155.243 74.3291C154.362 75.4588 153.92 77.0348 153.917 79.0571C153.917 81.1237 154.348 82.7058 155.211 83.8035C156.075 84.9011 157.315 85.4491 158.932 85.4476C160.552 85.4476 161.803 84.8995 162.685 83.8035Z" fill="white"/>
<path d="M48.183 95C45.5265 94.9988 42.9107 94.332 40.564 93.0579C38.2172 91.7839 36.2109 89.9413 34.7203 87.691L34 86.6118L42.2168 80.8872L42.9325 81.971C43.52 82.8625 44.315 83.5903 45.2459 84.0888C46.1769 84.5873 47.2144 84.8408 48.265 84.8264C49.3155 84.8121 50.3461 84.5303 51.2637 84.0066C52.1812 83.4828 52.957 82.7336 53.521 81.8264L55.6705 83.2248C54.9384 84.404 53.9503 85.3944 52.7832 86.119C51.616 86.8437 50.3012 87.2829 48.9411 87.4027C47.5809 87.5225 46.2121 87.3195 44.9412 86.8095C43.6702 86.2995 42.5313 85.4964 41.6132 84.4625L37.5901 87.2685C38.9555 88.9681 40.6921 90.3154 42.6598 91.2018C44.6276 92.0882 46.7714 92.4889 48.9183 92.3716C51.0651 92.2543 53.155 91.6222 55.0194 90.5264C56.8837 89.4306 58.4702 87.9017 59.651 86.063L61.7781 87.4981C60.2989 89.8055 58.2815 91.6995 55.9079 93.0092C53.5344 94.3189 50.8796 95.0031 48.183 95Z" fill="white"/>
<path d="M54.261 78.111L53.5452 77.0271C52.958 76.1353 52.1629 75.4072 51.2318 74.9085C50.3007 74.4099 49.2629 74.1564 48.2122 74.171C47.1614 74.1856 46.1307 74.4678 45.2132 74.9921C44.2957 75.5164 43.5202 76.2663 42.9568 77.1741L40.8072 75.7757C41.5393 74.5961 42.5274 73.6053 43.6948 72.8804C44.8622 72.1555 46.1773 71.7161 47.5377 71.5963C48.8982 71.4765 50.2673 71.6797 51.5385 72.1899C52.8097 72.7001 53.9487 73.5037 54.8668 74.538L58.9056 71.732C57.5407 70.0319 55.8043 68.684 53.8366 67.7971C51.8689 66.9102 49.725 66.5091 47.5779 66.6262C45.4309 66.7433 43.3408 67.3753 41.4764 68.4712C39.6119 69.5671 38.0254 71.0963 36.8447 72.9352L34.7041 71.5023C36.1745 69.2135 38.174 67.3314 40.5254 66.0227C42.8767 64.7141 45.5073 64.0195 48.1838 64.0004C50.8603 63.9813 53.5 64.6384 55.869 65.9134C58.2379 67.1883 60.2628 69.0418 61.7642 71.3095L62.4778 72.3864L54.261 78.111Z" fill="white"/>
<path d="M147.456 68.6341C148.261 68.6341 148.914 67.9658 148.914 67.1415C148.914 66.3172 148.261 65.6489 147.456 65.6489C146.65 65.6489 145.997 66.3172 145.997 67.1415C145.997 67.9658 146.65 68.6341 147.456 68.6341Z" fill="white"/>
</g>
<defs>
<clipPath id="clip0_961_15781">
<rect width="132" height="31" fill="white" transform="translate(34 64)"/>
</clipPath>
</defs>
</svg>
