<svg width="201" height="159" viewBox="0 0 201 159" fill="none" xmlns="http://www.w3.org/2000/svg">
<path d="M72.6604 85.4329C71.9398 82.4052 72.1002 79.6646 72.8818 77.309C72.8908 77.2829 72.8999 77.2568 72.9089 77.2307C72.9225 77.1937 72.9338 77.1567 72.9473 77.1198L72.8344 77.1459C72.622 76.2802 72.4164 75.0208 72.552 73.6788C69.5407 70.4901 64.6431 67.7778 59.7546 68.7783C53.9353 69.9681 52.8758 74.2095 51.8253 78.4074C51.6875 78.9599 51.5497 79.5124 51.4006 80.0561C50.8314 82.1355 50.7297 86.6184 52.0309 88.5999C56.0904 94.7771 66.4571 92.9653 71.244 89.2633C72.0053 88.6738 72.6966 87.98 73.2975 87.2122C73.0219 86.6379 72.8073 86.042 72.6604 85.4329ZM68.6145 88.3041C65.6777 88.1735 62.5309 87.2426 60.5294 84.4759C60.2809 84.1322 60.369 83.6602 60.7259 83.4188C61.0829 83.1796 61.5753 83.2644 61.8238 83.608C63.4368 85.8353 66.0121 86.6684 68.689 86.788C69.1228 86.8076 69.4594 87.1621 69.439 87.5819C69.4187 88.0017 69.0505 88.3236 68.6145 88.3041Z" fill="white"/>
<path d="M95.4046 78.3063C95.5253 75.9223 95.8697 73.9693 96.4862 72.1959C96.2383 71.9556 95.9794 71.7369 95.7074 71.5355C95.7184 71.4056 95.7271 71.28 95.7381 71.1523C95.8215 70.1108 95.7403 68.9264 95.2576 67.8373C94.606 66.3844 93.5814 65.5573 92.7762 65.1069C92.2563 64.8211 91.5893 65.1394 91.5125 65.6937L91.5279 65.6959L91.6266 65.711L91.5125 65.6959C91.416 66.3757 91.1549 67.322 90.5428 68.3764C90.3146 68.7727 90.0711 69.1126 89.8341 69.4006H89.8319C87.4186 69.1992 83.7876 69.4656 80.275 70.9206C79.9832 71.0419 79.6936 71.1761 79.4084 71.3277C79.415 71.345 79.4259 71.3623 79.4347 71.3796L78.2851 72.0054H78.2807L78.2763 72.0011C78.0372 71.568 77.9231 71.1241 77.8507 70.7279C77.8222 70.5698 77.8024 70.4183 77.7827 70.2797L77.5216 70.3143L77.7827 70.2775C77.7695 70.1909 77.7585 70.1065 77.7454 70.0285C77.6488 69.4721 76.9731 69.1668 76.4729 69.4894C75.6764 69.9766 74.6716 70.8275 74.0463 72.3194C73.8884 72.7048 73.7787 73.101 73.7085 73.4994C73.5834 74.1966 73.5768 74.896 73.6317 75.5369C73.6799 76.1064 73.7743 76.6304 73.8796 77.0678C73.9915 77.412 74.0463 77.4943 74.0463 77.4943C73.7458 78.3128 73.5264 79.1897 73.4057 80.1251C73.3201 80.779 73.285 81.461 73.3004 82.1713C73.3245 83.1716 73.4562 84.2217 73.7128 85.3217C73.7699 85.5685 73.8423 85.8132 73.9257 86.0557C74.0946 86.5472 74.314 87.0279 74.5795 87.4891C75.988 89.9315 78.68 91.8672 81.8218 92.3414C85.8477 92.9499 89.4261 92.978 93.7153 89.3274C94.674 88.5111 95.5033 87.5606 96.1988 86.5364C96.0211 85.7677 95.8807 85.0207 95.7557 84.3235C95.4068 82.338 95.2905 80.3135 95.4068 78.3063H95.4046ZM77.0323 70.3815L77.0565 70.3771H77.0586L77.0323 70.3836V70.3815ZM76.4772 70.4572L76.5299 70.4507H76.5321L76.4772 70.4616V70.4572ZM75.1982 76.8621C75.1982 76.8621 75.2047 76.8794 75.2069 76.8859C75.2047 76.8837 75.2026 76.8772 75.1982 76.8707C75.1938 76.8599 75.1872 76.8469 75.1762 76.8317L75.1982 76.8621ZM75.1389 76.7733C75.1389 76.7733 75.1411 76.7733 75.1411 76.7754H75.1367H75.1389V76.7733ZM79.1166 84.3127L79.1078 84.304C79.1078 84.304 79.1166 84.3084 79.121 84.3084L79.1166 84.3127ZM79.1934 84.3257C79.1824 84.3278 79.1671 84.3343 79.1495 84.3408C79.1473 84.3387 79.1429 84.3365 79.1407 84.3343L79.1539 84.3213H79.1561C79.1978 84.3278 79.2153 84.3213 79.1934 84.3257ZM81.225 83.3275V83.3405H81.2206H81.2184C81.0495 83.5137 80.8345 83.5938 80.6063 83.5938C80.3935 83.5938 80.1916 83.5202 80.0205 83.3686C79.8889 83.2452 79.755 83.1629 79.6212 83.1088C78.9608 82.8403 78.3202 83.2972 78.1798 83.4098C77.8989 83.6371 77.4931 83.6609 77.1881 83.4682L76.4729 83.0157L75.2706 82.2535L74.7857 81.9461C74.7199 81.9049 74.6628 81.853 74.6124 81.7988C74.3666 81.5238 74.3206 81.1103 74.5312 80.7898C74.5729 80.7292 74.6212 80.6729 74.6738 80.6253C74.8647 80.4564 75.1258 80.3784 75.3759 80.4174C75.49 80.4326 75.6019 80.4737 75.7028 80.5387L76.6988 81.1731L77.6379 81.7707C78.5286 81.2922 79.9459 81.0085 81.1833 82.1539L81.2184 82.1193V82.0348H81.2974L81.225 82.1106V82.1972C81.5234 82.5155 81.5278 83.0092 81.225 83.3275ZM89.5687 77.1435L89.5599 77.1522H89.5577C89.5577 77.1522 89.5643 77.1435 89.5687 77.1435ZM82.548 83.6978C82.548 83.6978 82.5414 83.7107 82.537 83.7172H82.5348C82.5348 83.7172 82.5282 83.7129 82.526 83.7107L82.5699 83.6501C82.5633 83.6653 82.5545 83.6826 82.548 83.6978ZM91.6025 79.5253L91.5016 79.4257H91.4994L88.702 81.7447C88.4388 81.9634 88.0724 82.0045 87.7762 81.853C87.2672 81.5996 86.813 81.5044 86.4159 81.5044C85.2114 81.5044 84.5379 82.3834 84.4765 82.4614V82.4657C84.3031 82.6909 84.0508 82.8165 83.7876 82.8165C83.7152 82.8165 83.6428 82.8078 83.5725 82.7883C83.4782 82.7624 83.3839 82.7191 83.2961 82.6563C83.0833 82.5069 82.9626 82.2752 82.9473 82.0348C82.9297 81.8465 82.9802 81.6516 83.1008 81.4849C83.7634 80.5733 85.602 79.2092 88.0197 80.1208H88.0219L90.4155 78.1374C90.771 77.8364 91.3063 77.8862 91.6112 78.237L91.6507 78.2045L91.6112 78.2392C91.9074 78.5921 91.8657 79.1161 91.5103 79.4171L91.6025 79.5253ZM92.3923 80.3849L92.366 80.4044C92.3879 80.3849 92.4099 80.3654 92.4318 80.3459L92.3923 80.3849ZM92.8157 65.8756H92.8135C92.8135 65.8756 92.8135 65.8712 92.8157 65.8691V65.8756Z" fill="white"/>
<path d="M124.136 74.2313C121.712 78.1488 120.516 83.0663 120.15 86.7245C120.071 87.5328 120.051 88.2823 120.093 88.9708C120.005 89.0863 119.914 89.1996 119.824 89.3064C119.78 89.3609 119.734 89.4131 119.69 89.4654C119.562 89.6136 119.432 89.7552 119.302 89.8881C119.262 89.9252 119.225 89.9644 119.187 90.0014C119.125 90.0624 119.064 90.1213 119 90.1779C118.907 90.2629 118.813 90.3457 118.716 90.4241C118.676 90.459 118.636 90.4916 118.594 90.5221C118.502 90.5962 118.407 90.6681 118.31 90.7357C118.279 90.7575 118.249 90.7792 118.215 90.801C118.163 90.8381 118.107 90.8751 118.052 90.91C118.015 90.9339 117.977 90.9601 117.938 90.9819C117.885 91.0167 117.83 91.0494 117.773 91.0821C117.715 91.117 117.658 91.1475 117.601 91.1801C116.296 91.8883 114.946 92.0778 113.692 91.7248C112.458 91.3784 111.407 90.4982 110.733 89.2497C110.455 88.7116 110.211 88.1516 110.008 87.5808L109.283 85.5392L108.745 87.6374C108.481 88.6593 108.122 89.5134 107.642 90.2542C106.987 91.2934 105.976 92.0691 104.779 92.4417C104.365 92.5789 103.931 92.6487 103.497 92.6487C103.246 92.6487 102.995 92.6269 102.746 92.5789C102.069 92.4504 101.432 92.1497 100.899 91.6987C100.091 91.0429 99.4935 90.1692 99.0198 88.9469C98.9846 88.8532 98.9493 88.7595 98.9141 88.6658C98.8898 88.6005 98.8656 88.5329 98.8436 88.4654C98.7995 88.3412 98.7576 88.2148 98.7158 88.0906C98.6827 87.986 98.6475 87.8814 98.6166 87.7769C98.5042 87.4108 98.4029 87.0448 98.3125 86.6809C98.1473 86.0208 98.0107 85.3715 97.8939 84.7527C97.8432 84.4912 97.797 84.2341 97.7529 83.9858C97.4202 82.088 97.31 80.1533 97.4202 78.2272C97.4356 77.9244 97.4532 77.6302 97.4775 77.3426C97.4995 77.055 97.5259 76.7761 97.5568 76.5016C97.5656 76.4101 97.5766 76.3186 97.5898 76.2293C97.5965 76.1704 97.6031 76.1138 97.6119 76.055C97.6141 76.0288 97.6163 76.0048 97.6207 75.9809C97.6317 75.885 97.6449 75.7891 97.6603 75.6955C97.6736 75.6039 97.6868 75.5124 97.7022 75.4231C97.7022 75.41 97.7044 75.397 97.7088 75.3839C97.7287 75.2641 97.7485 75.1464 97.7683 75.0287C97.7903 74.9111 97.8124 74.7934 97.8344 74.678C97.852 74.593 97.8697 74.508 97.8873 74.4252C97.9159 74.2814 97.949 74.1398 97.982 74.0004C98.0019 73.9132 98.0239 73.8261 98.0459 73.7411C98.0944 73.5515 98.1451 73.3641 98.198 73.1811C98.2575 72.9829 98.3169 72.7868 98.3831 72.595C98.4051 72.5253 98.4293 72.4556 98.4536 72.388C98.4822 72.3009 98.5153 72.2137 98.5461 72.1288C98.5924 72.0068 98.6386 71.8891 98.6893 71.7736C98.6981 71.754 98.7069 71.7322 98.718 71.7104C98.7554 71.6276 98.7929 71.5449 98.8347 71.4642C98.87 71.3967 98.9052 71.3292 98.9427 71.2638C99.0022 71.1548 99.0661 71.0503 99.1322 70.9479C99.1652 70.8978 99.1983 70.8498 99.2335 70.8041C99.3305 70.669 99.434 70.5404 99.542 70.4228C99.5773 70.3836 99.6125 70.3465 99.6478 70.3095C99.7271 70.2267 99.8108 70.1504 99.8968 70.0763C99.9232 70.0524 99.9518 70.0306 99.9805 70.0066C99.9937 69.9957 100.007 69.9848 100.022 69.9718C100.064 69.9391 100.108 69.9064 100.152 69.8737L100.161 69.865C100.719 69.4663 101.307 69.2615 101.911 69.2549C102.51 69.2506 103.107 69.4445 103.673 69.8345C104.202 70.194 104.645 70.6472 104.989 71.1832C105.33 71.717 105.557 72.3053 105.661 72.9415C105.941 74.4426 106.044 75.9743 105.971 77.4973L105.87 79.6347L107.161 77.9178C107.487 77.4864 107.846 77.1204 108.258 76.8001C109.259 76.0245 110.42 75.6889 111.519 75.8545C112.619 76.0201 113.613 76.6781 114.316 77.7065C114.446 77.9026 114.569 78.1074 114.683 78.3122L115.776 80.2731L115.922 78.0398C116.036 76.2968 116.404 74.5821 117.017 72.9393C117.402 71.8847 117.801 70.8607 118.456 69.9413L118.469 69.9217C118.859 69.329 119.449 68.878 120.13 68.6558C121.164 68.3398 122.226 68.9216 122.781 69.597C123.407 70.3552 123.653 71.2529 123.827 72.1113V72.1179C123.905 72.4948 123.968 72.8739 124.021 73.2552C124.068 73.5798 124.105 73.9045 124.136 74.2313Z" fill="white"/>
<path d="M149.469 78.5492C149.449 78.647 147.559 88.3458 141.508 91.6151C141.223 91.7641 134.49 95.2246 131.68 89.9671C131.674 89.956 131.177 88.9685 131.341 86.8736V86.8669C131.431 86.2642 131.462 85.8594 131.466 85.7971C131.515 84.654 132.944 81.9608 133.522 80.9689C133.528 80.9555 133.535 80.9444 133.542 80.9333C133.643 80.7598 133.656 80.5596 133.595 80.3839C133.59 80.3617 133.581 80.3395 133.57 80.3195C133.561 80.2972 133.553 80.2772 133.539 80.2572C133.513 80.2127 133.482 80.1704 133.445 80.1326C133.434 80.1193 133.42 80.1059 133.407 80.0948C133.4 80.0882 133.394 80.0837 133.387 80.0793C133.361 80.057 133.334 80.0392 133.306 80.0214C133.279 80.0059 133.253 79.9925 133.224 79.9814C133.198 79.9681 133.171 79.9592 133.142 79.9503C133.085 79.9369 133.028 79.928 132.97 79.928C132.935 79.928 132.9 79.9303 132.867 79.9369C132.843 79.9414 132.816 79.9458 132.794 79.9547C132.774 79.9569 132.757 79.9636 132.739 79.9725C132.719 79.9792 132.699 79.9881 132.679 79.997C132.673 80.0014 132.666 80.0036 132.662 80.0059C132.631 80.0214 132.604 80.0392 132.576 80.0592C132.507 80.1126 132.448 80.1771 132.401 80.2572C132.179 80.6375 130.231 84.0157 130.148 85.6993C130.092 86.0507 130.055 86.382 130.028 86.6934C129.79 88.2635 129.122 91.3238 127.393 92.7716C126.661 93.3832 125.832 93.6256 124.855 93.5144L124.799 93.5077H124.749C124.7 93.5122 123.558 93.5477 122.643 92.5692C122.603 92.5269 122.565 92.4847 122.53 92.4402C122.506 92.4135 122.484 92.3868 122.464 92.3579C122.437 92.3268 122.413 92.2934 122.389 92.2601C122.376 92.2423 122.365 92.2267 122.351 92.2089C122.314 92.1555 122.279 92.0999 122.243 92.0421C122.224 92.011 122.204 91.9798 122.188 91.9487C122.142 91.8731 122.1 91.793 122.06 91.7107C122.036 91.664 122.014 91.6173 121.994 91.5684C121.983 91.5462 121.972 91.5239 121.966 91.5017C121.946 91.4572 121.926 91.4127 121.908 91.366C121.86 91.2459 121.818 91.1214 121.778 90.9924C121.758 90.9301 121.741 90.8656 121.723 90.7989C121.705 90.7322 121.688 90.6655 121.672 90.5965C121.624 90.3897 121.584 90.174 121.551 89.9493C121.54 89.8737 121.531 89.7981 121.522 89.7203C121.513 89.6357 121.505 89.549 121.496 89.4601C121.487 89.38 121.483 89.2977 121.478 89.2132C121.474 89.1509 121.472 89.0864 121.469 89.0219C121.465 88.9663 121.465 88.9085 121.463 88.8507C121.449 88.3325 121.472 87.7743 121.529 87.1805V87.176C121.593 86.5199 121.685 85.8238 121.805 85.0988C121.838 84.892 121.875 84.6829 121.913 84.4716C121.921 84.4249 121.93 84.3782 121.939 84.3315C121.955 84.2492 121.97 84.1647 121.988 84.0802C122.058 83.7155 122.138 83.3463 122.224 82.9727C122.252 82.8481 122.281 82.7236 122.312 82.599C122.343 82.4723 122.374 82.3477 122.404 82.2232C122.499 81.8451 122.603 81.4648 122.715 81.0845C123.033 79.9992 123.414 78.9072 123.867 77.8464C123.908 77.7441 123.953 77.644 123.997 77.5439C124.092 77.326 124.189 77.1125 124.292 76.899C124.299 76.8812 124.308 76.8634 124.316 76.8478C124.383 76.7055 124.453 76.5654 124.524 76.4252C124.557 76.3607 124.588 76.2963 124.621 76.234C124.702 76.0739 124.786 75.9159 124.874 75.7603C124.885 75.738 124.896 75.718 124.908 75.698C125.002 75.5245 125.099 75.3555 125.199 75.1865C125.216 75.1576 125.234 75.1309 125.249 75.102C125.346 74.9418 125.443 74.7817 125.545 74.626C125.547 74.6194 125.552 74.6127 125.556 74.6082C125.695 74.3925 125.836 74.1812 125.982 73.9744C126.039 73.8943 126.094 73.8165 126.151 73.7387C126.202 73.6697 126.253 73.6008 126.306 73.5318C126.354 73.4673 126.403 73.4028 126.456 73.3383C126.5 73.2783 126.548 73.2182 126.597 73.1582C127.038 72.6089 127.514 72.0974 128.024 71.6348C128.077 71.5858 128.13 71.5391 128.183 71.4947C128.24 71.4413 128.299 71.3924 128.359 71.3434C128.432 71.2812 128.505 71.2189 128.58 71.1611C128.639 71.1121 128.699 71.0654 128.758 71.0209C128.793 70.9943 128.829 70.9676 128.864 70.9409C128.915 70.9009 128.968 70.863 129.021 70.8252C129.1 70.7674 129.179 70.7118 129.261 70.6584C129.343 70.6028 129.426 70.5472 129.51 70.4939C129.942 70.2181 130.395 69.9757 130.869 69.7711C130.935 69.7422 131.003 69.7132 131.072 69.6866C131.144 69.6554 131.219 69.6265 131.297 69.5998C131.383 69.5642 131.469 69.5331 131.557 69.5042C131.605 69.4864 131.656 69.4708 131.707 69.4553C131.766 69.433 131.828 69.4152 131.89 69.3974C131.96 69.3752 132.033 69.353 132.106 69.3352C132.148 69.3218 132.192 69.3107 132.236 69.2996C132.291 69.284 132.346 69.2707 132.404 69.2573C132.474 69.2395 132.547 69.224 132.62 69.2084C132.684 69.1928 132.75 69.1795 132.816 69.1684C132.856 69.1595 132.893 69.1528 132.933 69.1461C133.017 69.1306 133.101 69.115 133.187 69.1039C133.228 69.0972 133.273 69.0905 133.317 69.0861C133.396 69.0727 133.475 69.0638 133.555 69.0549C133.665 69.0416 133.775 69.0305 133.888 69.0216C134.022 69.0105 134.159 69.0016 134.298 68.9971C134.435 68.9904 134.574 68.9882 134.715 68.9882C134.825 68.9882 134.938 68.9904 135.05 68.9949C135.063 68.9971 135.083 68.9993 135.11 69.0038C135.125 69.006 135.145 69.0105 135.167 69.0127C135.207 69.0194 135.253 69.0283 135.306 69.0394C135.326 69.0438 135.346 69.0483 135.368 69.0527C135.388 69.0572 135.41 69.0616 135.432 69.0661C135.518 69.0839 135.615 69.1083 135.723 69.135C135.749 69.1417 135.778 69.1483 135.804 69.1572C135.871 69.175 135.939 69.1928 136.009 69.2151C136.051 69.2262 136.093 69.2395 136.135 69.2529C136.179 69.2662 136.223 69.2796 136.268 69.2951C136.367 69.3285 136.47 69.3641 136.576 69.4041C136.629 69.4241 136.682 69.4441 136.737 69.4664C136.9 69.5309 137.066 69.602 137.236 69.6843C137.275 69.7021 137.313 69.7199 137.35 69.7399C137.39 69.7599 137.428 69.78 137.467 69.8C137.516 69.8244 137.564 69.8511 137.611 69.8778C137.659 69.9045 137.708 69.9312 137.756 69.9601C137.851 70.0157 137.948 70.0757 138.043 70.138C138.094 70.1692 138.142 70.2047 138.191 70.2381C138.427 70.4027 138.656 70.5873 138.874 70.7963C138.892 70.8141 138.91 70.8319 138.927 70.8475C139.033 70.9498 139.132 71.0565 139.229 71.17C139.278 71.2278 139.326 71.2856 139.373 71.3456C139.419 71.4057 139.465 71.4657 139.509 71.528C139.569 71.6125 139.624 71.6993 139.679 71.7882C139.734 71.875 139.785 71.9661 139.836 72.0618C139.842 72.0751 139.849 72.0885 139.856 72.104C139.884 72.1552 139.909 72.2086 139.933 72.2619C139.966 72.3287 139.995 72.3976 140.023 72.4688C140.05 72.5333 140.076 72.6 140.1 72.6667C140.12 72.7223 140.138 72.7779 140.156 72.8357C140.169 72.8713 140.18 72.9091 140.189 72.9447C140.209 73.0092 140.226 73.0759 140.242 73.1426C140.259 73.2071 140.272 73.2738 140.288 73.3406C140.292 73.3673 140.299 73.3962 140.303 73.4229C140.317 73.4918 140.33 73.563 140.339 73.6364C140.352 73.7209 140.363 73.8076 140.372 73.8966C140.372 73.8988 140.387 74.1034 140.378 74.4526C140.35 75.7136 140.017 78.9317 137.582 81.6049C137.333 81.8762 137.35 82.2988 137.619 82.5479C137.891 82.797 138.307 82.7792 138.554 82.5079C141.296 79.501 141.669 75.8959 141.702 74.4837C141.708 74.2101 141.702 74.0122 141.697 73.8943C141.739 73.663 141.785 73.4384 141.836 73.2227C141.863 73.1137 141.889 73.007 141.916 72.9024C141.944 72.7979 141.973 72.6956 142.002 72.5955C142.061 72.3931 142.123 72.1997 142.191 72.0128C142.224 71.9194 142.26 71.8283 142.295 71.7393C142.33 71.6503 142.368 71.5614 142.405 71.4769C142.436 71.4057 142.469 71.3368 142.502 71.27C142.511 71.2456 142.524 71.2211 142.537 71.1966C142.571 71.1255 142.608 71.0565 142.645 70.9876C142.687 70.9097 142.729 70.8341 142.773 70.7607C142.818 70.6873 142.864 70.614 142.91 70.545C142.956 70.4738 143.003 70.4049 143.051 70.3404C143.148 70.207 143.25 70.0824 143.356 69.9646C143.506 69.7933 143.667 69.6398 143.839 69.4997C143.949 69.4108 144.064 69.3263 144.183 69.2484C144.242 69.2106 144.302 69.1728 144.363 69.1372C144.425 69.1016 144.487 69.0683 144.551 69.0371C144.615 69.0038 144.679 68.9749 144.745 68.946C144.805 68.9193 144.866 68.8926 144.93 68.8703C144.988 68.8459 145.047 68.8236 145.109 68.8059C145.155 68.7903 145.204 68.7747 145.252 68.7614L145.398 68.7213C145.61 68.6657 145.83 68.6257 146.059 68.6012C146.117 68.5946 146.176 68.5879 146.236 68.5835C146.322 68.5768 146.41 68.5701 146.501 68.5679C146.556 68.5657 147.822 68.5323 148.805 69.711C149.727 70.8141 150.589 73.2427 149.469 78.5492Z" fill="white"/>
</svg>
