<svg width="201" height="159" viewBox="0 0 201 159" fill="none" xmlns="http://www.w3.org/2000/svg">
<path d="M139.139 79.6298H135.859C133.748 79.6298 132.617 81.2223 132.617 83.8761V93.4693H126.398V79.6288H123.758C121.647 79.6288 120.517 81.2213 120.517 83.8751V93.4684H114.297V74.5108H120.517V77.3926C121.535 75.1555 122.93 74.5108 125.004 74.5108H132.618V77.3926C133.637 75.1555 135.031 74.5108 137.105 74.5108H139.14L139.139 79.6298ZM112.939 85.4685H99.9715C100.311 87.5921 101.63 88.8055 103.854 88.8055C105.512 88.8055 106.681 88.1223 107.059 86.9099L112.562 88.4639C111.205 91.7624 107.85 93.7724 103.854 93.7724C97.1058 93.7724 94.0146 88.5014 94.0146 83.9906C94.0146 79.5547 96.7284 74.2462 103.476 74.2462C110.639 74.2462 113.014 79.6298 113.014 83.6114C113.018 84.2313 112.993 84.8511 112.939 85.4685ZM106.908 81.7909C106.757 80.16 105.587 78.6445 103.477 78.6445C101.516 78.6445 100.349 79.5153 99.9715 81.7909H106.908ZM83.159 93.4684H88.6241L95.4474 74.5127H89.1905L85.8729 85.5445L82.4799 74.5118H76.2592L83.159 93.4684ZM57.6757 93.4684H63.8581V79.6298H69.7406V93.4693H75.8848V74.5118H63.8581V73.3369C63.8581 72.0475 64.7627 71.2518 66.1956 71.2518H69.7396V66.1328H65.1783C60.6914 66.1328 57.6757 68.9011 57.6757 72.9568V74.5118H54.1699V79.6308H57.6757V93.4684Z" fill="white"/>
<path d="M142.986 94.0331C145.109 94.0331 146.83 92.3011 146.83 90.165C146.83 88.0289 145.109 86.2979 142.986 86.2979C140.862 86.2979 139.14 88.0298 139.14 90.166C139.14 92.3021 140.862 94.0331 142.986 94.0331Z" fill="white"/>
</svg>
