<svg width="200" height="159" viewBox="0 0 200 159" fill="none" xmlns="http://www.w3.org/2000/svg">
<path fill-rule="evenodd" clip-rule="evenodd" d="M93.8502 72.6732C93.3398 72.6732 92.917 72.5061 92.5818 72.1718C92.2618 71.8384 92.1009 71.4137 92.1009 70.9022C92.1009 70.3925 92.2618 69.977 92.5818 69.6582C92.917 69.3239 93.3398 69.1567 93.8502 69.1567C94.3597 69.1567 94.7763 69.3239 95.0972 69.6582C95.4324 69.977 95.6013 70.3925 95.6013 70.9031C95.6013 71.4128 95.4315 71.8348 95.0972 72.1727C94.7763 72.5061 94.3597 72.6732 93.8502 72.6732ZM92.2984 86.8352V74.3109H95.3993V86.8361H92.2984V86.8352ZM64.7668 72.1727C65.1029 72.507 65.5248 72.6732 66.0352 72.6732C66.5447 72.6732 66.9612 72.507 67.2822 72.1727C67.6174 71.8348 67.7863 71.4137 67.7863 70.9031C67.7863 70.3935 67.6174 69.977 67.2822 69.6582C66.9621 69.3239 66.5447 69.1577 66.0352 69.1577C65.5257 69.1577 65.102 69.3239 64.7668 69.6582C64.4467 69.9779 64.2867 70.3935 64.2867 70.9031C64.2867 71.4137 64.4459 71.8384 64.7668 72.1727ZM64.4843 74.31V86.8361H67.5861V74.31H64.4843ZM70.1533 74.31V86.8388H73.2533V80.373C73.2533 79.2286 73.5036 78.3362 74.006 77.695C74.5217 77.0538 75.1922 76.736 76.0172 76.736C76.8557 76.736 77.4769 77.0209 77.8818 77.5945C78.2868 78.1654 78.4879 78.992 78.4879 80.0698V86.8379H81.5888V80.373C81.5888 79.2286 81.8391 78.3362 82.3397 77.695C82.8563 77.0538 83.5348 76.736 84.3741 76.736C85.1992 76.736 85.8053 77.0209 86.1932 77.5945C86.5981 78.1654 86.7993 78.992 86.7993 80.0698V86.8315H89.9001V79.7611C89.9001 77.8758 89.48 76.4455 88.6407 75.4682C87.8013 74.4927 86.5981 74.004 85.0294 74.004C84.1856 73.9978 83.3537 74.2066 82.6087 74.6114C81.8997 74.9988 81.2989 75.5643 80.863 76.2546C80.088 74.7567 78.7704 74.0077 76.9138 74.0077C76.0744 74.0077 75.3316 74.1922 74.6844 74.563C74.0657 74.9049 73.5408 75.3998 73.1577 76.0025L72.8922 74.3109L70.1533 74.31ZM97.971 69.2636V86.8388H101.071V69.2636H97.971ZM108.762 87.1384C107.631 87.1384 106.62 86.8534 105.734 86.2798C104.845 85.7062 104.143 84.9253 103.628 83.9325C103.112 82.9396 102.852 81.8098 102.852 80.5502C102.852 79.2898 103.111 78.1663 103.628 77.1917C104.143 76.1989 104.849 75.4243 105.734 74.8681C106.623 74.2945 107.631 74.0095 108.762 74.0095C109.665 74.0095 110.459 74.1849 111.137 74.5402C111.816 74.8928 112.364 75.3905 112.784 76.0317V74.3128H115.884V86.8397H113.122L112.784 85.045C112.397 85.6003 111.881 86.0899 111.234 86.5082C110.601 86.9311 109.779 87.1402 108.762 87.1402V87.1384ZM109.415 84.3124C110.417 84.3124 111.234 83.9653 111.863 83.2767C112.51 82.5697 112.834 81.6673 112.834 80.574C112.834 79.4807 112.51 78.5883 111.863 77.8959C111.234 77.1881 110.417 76.8364 109.415 76.8364C108.43 76.8364 107.614 77.1826 106.967 77.8713C106.32 78.5609 105.996 79.4533 105.996 80.5502C105.996 81.6435 106.32 82.545 106.967 83.2529C107.614 83.9562 108.429 84.3124 109.415 84.3124ZM118.373 74.31V86.8361H121.474V81.1275C121.474 80.1675 121.617 79.4176 121.908 78.8806C122.217 78.3417 122.637 77.9626 123.17 77.7443C123.703 77.5251 124.309 77.4155 124.989 77.4155H125.86L124.989 74.31C124.356 74.31 123.689 74.4251 123.196 74.7384C122.453 75.2087 121.843 75.8701 121.427 76.6565L121.136 74.3091H118.373V74.31ZM130.278 86.8388L126.763 74.3128H129.841L131.924 83.3278L134.347 74.3128H137.788L140.21 83.3278L142.319 74.3128H145.397L141.859 86.8388H138.637L136.068 77.4676L133.499 86.8388H130.278ZM148.573 86.3319C149.512 86.869 150.584 87.1393 151.796 87.1393C152.764 87.1393 153.63 86.9539 154.39 86.584C155.14 86.234 155.802 85.7157 156.328 85.0678C156.851 84.4331 157.239 83.694 157.467 82.8976H154.317C154.104 83.3707 153.781 83.7562 153.346 84.0603C152.924 84.3453 152.4 84.4887 151.77 84.4887C150.931 84.4887 150.211 84.212 149.613 83.6566C149.033 83.1004 148.71 82.335 148.646 81.3576H157.779C157.793 81.1384 157.802 80.9293 157.802 80.7256C157.82 80.5256 157.829 80.331 157.829 80.1456C157.829 79.0011 157.569 77.9663 157.053 77.0401C156.568 76.1115 155.837 75.3411 154.944 74.8169C154.04 74.2799 153 74.0095 151.82 74.0095C150.557 74.0095 149.462 74.2945 148.524 74.8681C147.603 75.4243 146.877 76.2044 146.344 77.2155C145.828 78.2238 145.569 79.3774 145.569 80.6744C145.569 81.9532 145.834 83.0794 146.367 84.0576C146.879 85.0123 147.643 85.8005 148.573 86.3319ZM149.808 77.3169C150.388 76.8602 151.059 76.6327 151.82 76.6327C152.612 76.6327 153.274 76.8794 153.807 77.3644C154.34 77.853 154.629 78.5097 154.678 79.3354H148.693C148.855 78.4275 149.226 77.7535 149.808 77.3159V77.3169ZM166.449 87.1393C165.543 87.1393 164.752 86.9631 164.074 86.6077C163.407 86.2662 162.84 85.7523 162.427 85.1171L162.086 86.8361H159.324V69.2627H162.424V76.1039C162.812 75.5486 163.322 75.0599 163.951 74.6407C164.599 74.2187 165.429 74.0095 166.446 74.0095C167.576 74.0095 168.585 74.2945 169.474 74.8681C170.367 75.4466 171.094 76.2565 171.581 77.2155C172.097 78.2092 172.356 79.3391 172.356 80.5986C172.356 81.8591 172.097 82.9889 171.581 83.9818C171.09 84.9316 170.363 85.7326 169.474 86.3045C168.591 86.8635 167.58 87.1393 166.449 87.1393ZM165.796 84.3124C166.781 84.3124 167.597 83.9663 168.244 83.2767C168.891 82.588 169.215 81.6947 169.215 80.5986C169.215 79.5053 168.891 78.6038 168.244 77.8959C167.597 77.189 166.784 76.8364 165.796 76.8364C164.793 76.8364 163.972 77.189 163.325 77.8959C162.695 78.5855 162.381 79.4779 162.381 80.5749C162.381 81.6673 162.695 82.5697 163.325 83.2767C163.968 83.9663 164.793 84.3124 165.796 84.3124ZM60.5423 79.9163C61.2538 80.1538 61.8187 80.5146 62.2389 81.0033C62.6581 81.4773 62.8681 82.1569 62.8708 83.0492C62.8952 83.793 62.6914 84.5259 62.288 85.1454C61.8831 85.7674 61.303 86.2561 60.5423 86.6087C59.7825 86.9649 58.8868 87.1402 57.8517 87.1402C56.7861 87.1402 55.8476 86.9612 55.0404 86.6087C54.2332 86.2387 53.586 85.7346 53.1024 85.0934C52.7127 84.5777 52.4417 83.9789 52.3096 83.3415L55.1164 82.8921C55.2183 83.1259 55.608 83.7233 56.0255 84.0338C56.0558 84.0631 56.0862 84.0886 56.1184 84.1179L56.1327 84.1307C56.5707 84.4686 57.1267 84.6348 57.8061 84.6348C58.4854 84.6348 58.9771 84.4924 59.2837 84.2074C59.6064 83.9215 59.7664 83.5936 59.7664 83.2228C59.7664 82.682 59.5402 82.3213 59.0879 82.1358C58.6338 81.9349 58.0036 81.7413 57.1964 81.5559C56.6665 81.435 56.1417 81.2921 55.6232 81.1275C55.1115 80.9673 54.6166 80.7559 54.1456 80.4963C53.7239 80.2406 53.3603 79.8959 53.0792 79.4852C52.8048 79.066 52.668 78.5536 52.668 77.9453C52.668 76.8337 53.0881 75.902 53.9266 75.143C54.7838 74.3867 55.979 74.0068 57.5147 74.0068C58.9359 74.0068 60.0676 74.3539 60.907 75.0425C61.5679 75.5725 62.0463 76.3039 62.2728 77.1305L59.6814 77.7991L59.6788 77.7863C59.6788 77.7863 59.3382 77.1031 58.7849 76.8026C58.4577 76.6053 58.026 76.5049 57.4905 76.5049C56.9077 76.5049 56.4554 76.6209 56.1318 76.8574C55.8261 77.0949 55.6715 77.389 55.6715 77.7416C55.6715 78.1115 55.9075 78.4065 56.3741 78.6248C56.8407 78.844 57.4646 79.0468 58.2396 79.2322C59.0781 79.4359 59.8486 79.6633 60.5414 79.9154L60.5423 79.9163Z" fill="white"/>
<path d="M45.1248 74.7568C44.0522 73.0479 42.4995 71.6202 40.718 70.895L40.1906 70.7123C39.6085 70.5285 39.0031 70.4331 38.3939 70.4292C36.464 70.4383 34.9023 72.0696 34.9023 74.0827C34.9023 74.9212 35.1732 75.6921 35.6273 76.3059L35.4092 76.0136C35.5138 76.1725 35.6273 76.3296 35.7587 76.4886C36.3129 77.1736 37.0995 77.8851 38.1185 78.6925C40.6259 80.6746 42.2519 82.4337 42.386 84.614C42.4181 84.9081 42.4378 85.2086 42.4378 85.5127C42.4378 86.6207 42.2018 87.7934 41.7996 88.6182H41.8031C41.8031 88.6182 41.6306 88.9406 41.7388 89.0347C41.7942 89.0831 41.914 89.1197 42.1232 88.989C43.2462 88.2424 44.213 87.2753 44.9675 86.1439C46.0794 84.4692 46.6864 82.4981 46.7133 80.4745C46.743 78.4508 46.1907 76.4627 45.1248 74.7568Z" fill="white"/>
<path d="M37.519 82.1921L35.9485 80.8677C32.659 78.4153 30.9481 75.7702 31.8857 72.5085C31.9707 72.2116 32.0753 71.923 32.195 71.6408V71.6371C32.195 71.6371 32.4274 71.1393 31.9215 71.385C30.404 72.227 29.1234 73.4529 28.2022 74.9453C27.281 76.4376 26.75 78.1466 26.6601 79.9087C26.5419 82.1567 27.1445 84.3828 28.3764 86.2494C28.8738 86.9631 29.4822 87.5888 30.1775 88.1017H30.1749C33.6431 90.7103 36.618 89.3375 36.618 89.3375H36.6207C37.3584 89.0193 37.9874 88.485 38.4282 87.8019C38.8691 87.1189 39.102 86.3177 39.0976 85.4995C39.1009 84.8613 38.9602 84.231 38.6862 83.6575C38.4123 83.0841 38.0125 82.5829 37.5181 82.193L37.519 82.1921Z" fill="white"/>
</svg>
