<svg width="169" height="194" viewBox="0 0 169 194" fill="none" xmlns="http://www.w3.org/2000/svg">
<rect width="48.0539" height="48.0539" transform="matrix(0.868438 0.501393 -0.868438 0.501393 84.332 96.8747)" fill="url(#paint0_linear_1196_6602)"/>
<rect width="48.0539" height="48.0539" transform="matrix(0.868438 0.501393 -0.868438 0.501393 84.332 96.8747)" stroke="#4E4E4E"/>
<rect width="48.0539" height="48.0539" transform="matrix(0.868438 0.501393 -0.868438 0.501393 84.332 96.8747)" stroke="#D90CB7"/>
<rect width="48.0539" height="48.0539" transform="matrix(0.868438 0.501393 0 1.00279 42.5998 120.961)" fill="url(#paint1_linear_1196_6602)"/>
<rect width="48.0539" height="48.0539" transform="matrix(0.868438 0.501393 0 1.00279 42.5998 120.961)" stroke="#4E4E4E"/>
<rect width="48.0539" height="48.0539" transform="matrix(0.868438 0.501393 0 1.00279 42.5998 120.961)" stroke="#D90CB7"/>
<rect width="48.0539" height="48.0539" transform="matrix(0.868438 -0.501393 0 1.00279 84.332 145.059)" fill="url(#paint2_linear_1196_6602)"/>
<rect width="48.0539" height="48.0539" transform="matrix(0.868438 -0.501393 0 1.00279 84.332 145.059)" stroke="#4E4E4E"/>
<rect width="48.0539" height="48.0539" transform="matrix(0.868438 -0.501393 0 1.00279 84.332 145.059)" stroke="#D90CB7"/>
<rect width="48.0539" height="48.0539" transform="matrix(0.868438 0.501393 -0.868438 0.501393 84.332 48.6861)" fill="url(#paint3_linear_1196_6602)"/>
<rect width="48.0539" height="48.0539" transform="matrix(0.868438 0.501393 -0.868438 0.501393 84.332 48.6861)" stroke="#4E4E4E"/>
<rect width="48.0539" height="48.0539" transform="matrix(0.868438 0.501393 -0.868438 0.501393 84.332 48.6861)" stroke="#D90CB7"/>
<rect width="48.0539" height="48.0539" transform="matrix(0.868438 0.501393 0 1.00279 42.5998 72.7725)" fill="url(#paint4_linear_1196_6602)"/>
<rect width="48.0539" height="48.0539" transform="matrix(0.868438 0.501393 0 1.00279 42.5998 72.7725)" stroke="#4E4E4E"/>
<rect width="48.0539" height="48.0539" transform="matrix(0.868438 0.501393 0 1.00279 42.5998 72.7725)" stroke="#D90CB7"/>
<rect width="48.0539" height="48.0539" transform="matrix(0.868438 -0.501393 0 1.00279 84.332 96.8707)" fill="url(#paint5_linear_1196_6602)"/>
<rect width="48.0539" height="48.0539" transform="matrix(0.868438 -0.501393 0 1.00279 84.332 96.8707)" stroke="#4E4E4E"/>
<rect width="48.0539" height="48.0539" transform="matrix(0.868438 -0.501393 0 1.00279 84.332 96.8707)" stroke="#D90CB7"/>
<rect width="48.0539" height="48.0539" transform="matrix(0.868438 0.501393 -0.868438 0.501393 84.332 0.501393)" fill="url(#paint6_linear_1196_6602)"/>
<rect width="48.0539" height="48.0539" transform="matrix(0.868438 0.501393 -0.868438 0.501393 84.332 0.501393)" stroke="#4E4E4E"/>
<rect width="48.0539" height="48.0539" transform="matrix(0.868438 0.501393 -0.868438 0.501393 84.332 0.501393)" stroke="#D90CB7"/>
<rect width="48.0539" height="48.0539" transform="matrix(0.868438 0.501393 0 1.00279 42.5998 24.5918)" fill="url(#paint7_linear_1196_6602)"/>
<rect width="48.0539" height="48.0539" transform="matrix(0.868438 0.501393 0 1.00279 42.5998 24.5918)" stroke="#4E4E4E"/>
<rect width="48.0539" height="48.0539" transform="matrix(0.868438 0.501393 0 1.00279 42.5998 24.5918)" stroke="#D90CB7"/>
<rect width="48.0539" height="48.0539" transform="matrix(0.868438 -0.501393 0 1.00279 84.332 48.6861)" fill="url(#paint8_linear_1196_6602)"/>
<rect width="48.0539" height="48.0539" transform="matrix(0.868438 -0.501393 0 1.00279 84.332 48.6861)" stroke="#4E4E4E"/>
<rect width="48.0539" height="48.0539" transform="matrix(0.868438 -0.501393 0 1.00279 84.332 48.6861)" stroke="#D90CB7"/>
<rect width="48.0539" height="48.0539" transform="matrix(0.868438 0.501393 -0.868438 0.501393 42.6008 24.5918)" fill="url(#paint9_linear_1196_6602)"/>
<rect width="48.0539" height="48.0539" transform="matrix(0.868438 0.501393 -0.868438 0.501393 42.6008 24.5918)" stroke="#4E4E4E"/>
<rect width="48.0539" height="48.0539" transform="matrix(0.868438 0.501393 -0.868438 0.501393 42.6008 24.5918)" stroke="#D90CB7"/>
<rect width="48.0539" height="48.0539" transform="matrix(0.868438 0.501393 0 1.00279 0.868625 48.6782)" fill="url(#paint10_linear_1196_6602)"/>
<rect width="48.0539" height="48.0539" transform="matrix(0.868438 0.501393 0 1.00279 0.868625 48.6782)" stroke="#4E4E4E"/>
<rect width="48.0539" height="48.0539" transform="matrix(0.868438 0.501393 0 1.00279 0.868625 48.6782)" stroke="#D90CB7"/>
<rect width="48.0539" height="48.0539" transform="matrix(0.868438 -0.501393 0 1.00279 42.5998 72.7764)" fill="url(#paint11_linear_1196_6602)"/>
<rect width="48.0539" height="48.0539" transform="matrix(0.868438 -0.501393 0 1.00279 42.5998 72.7764)" stroke="#4E4E4E"/>
<rect width="48.0539" height="48.0539" transform="matrix(0.868438 -0.501393 0 1.00279 42.5998 72.7764)" stroke="#D90CB7"/>
<rect width="48.0539" height="48.0539" transform="matrix(0.868438 0.501393 -0.868438 0.501393 42.6008 72.7804)" fill="url(#paint12_linear_1196_6602)"/>
<rect width="48.0539" height="48.0539" transform="matrix(0.868438 0.501393 -0.868438 0.501393 42.6008 72.7804)" stroke="#4E4E4E"/>
<rect width="48.0539" height="48.0539" transform="matrix(0.868438 0.501393 -0.868438 0.501393 42.6008 72.7804)" stroke="#D90CB7"/>
<rect width="48.0539" height="48.0539" transform="matrix(0.868438 0.501393 0 1.00279 0.868625 96.8668)" fill="url(#paint13_linear_1196_6602)"/>
<rect width="48.0539" height="48.0539" transform="matrix(0.868438 0.501393 0 1.00279 0.868625 96.8668)" stroke="#4E4E4E"/>
<rect width="48.0539" height="48.0539" transform="matrix(0.868438 0.501393 0 1.00279 0.868625 96.8668)" stroke="#D90CB7"/>
<rect width="48.0539" height="48.0539" transform="matrix(0.868438 -0.501393 0 1.00279 42.5998 120.965)" fill="url(#paint14_linear_1196_6602)"/>
<rect width="48.0539" height="48.0539" transform="matrix(0.868438 -0.501393 0 1.00279 42.5998 120.965)" stroke="#4E4E4E"/>
<rect width="48.0539" height="48.0539" transform="matrix(0.868438 -0.501393 0 1.00279 42.5998 120.965)" stroke="#D90CB7"/>
<rect width="48.0539" height="48.0539" transform="matrix(0.868438 0.501393 -0.868438 0.501393 126.065 24.5918)" fill="url(#paint15_linear_1196_6602)"/>
<rect width="48.0539" height="48.0539" transform="matrix(0.868438 0.501393 -0.868438 0.501393 126.065 24.5918)" stroke="#4E4E4E"/>
<rect width="48.0539" height="48.0539" transform="matrix(0.868438 0.501393 -0.868438 0.501393 126.065 24.5918)" stroke="#D90CB7"/>
<rect width="48.0539" height="48.0539" transform="matrix(0.868438 0.501393 0 1.00279 84.333 48.6782)" fill="url(#paint16_linear_1196_6602)"/>
<rect width="48.0539" height="48.0539" transform="matrix(0.868438 0.501393 0 1.00279 84.333 48.6782)" stroke="#4E4E4E"/>
<rect width="48.0539" height="48.0539" transform="matrix(0.868438 0.501393 0 1.00279 84.333 48.6782)" stroke="#D90CB7"/>
<rect width="48.0539" height="48.0539" transform="matrix(0.868438 -0.501393 0 1.00279 126.065 72.7764)" fill="url(#paint17_linear_1196_6602)"/>
<rect width="48.0539" height="48.0539" transform="matrix(0.868438 -0.501393 0 1.00279 126.065 72.7764)" stroke="#4E4E4E"/>
<rect width="48.0539" height="48.0539" transform="matrix(0.868438 -0.501393 0 1.00279 126.065 72.7764)" stroke="#D90CB7"/>
<rect width="48.0539" height="48.0539" transform="matrix(0.868438 0.501393 -0.868438 0.501393 126.065 72.7725)" fill="url(#paint18_linear_1196_6602)"/>
<rect width="48.0539" height="48.0539" transform="matrix(0.868438 0.501393 -0.868438 0.501393 126.065 72.7725)" stroke="#4E4E4E"/>
<rect width="48.0539" height="48.0539" transform="matrix(0.868438 0.501393 -0.868438 0.501393 126.065 72.7725)" stroke="#D90CB7"/>
<rect width="48.0539" height="48.0539" transform="matrix(0.868438 0.501393 0 1.00279 84.333 96.8629)" fill="url(#paint19_linear_1196_6602)"/>
<rect width="48.0539" height="48.0539" transform="matrix(0.868438 0.501393 0 1.00279 84.333 96.8629)" stroke="#4E4E4E"/>
<rect width="48.0539" height="48.0539" transform="matrix(0.868438 0.501393 0 1.00279 84.333 96.8629)" stroke="#D90CB7"/>
<rect width="48.0539" height="48.0539" transform="matrix(0.868438 -0.501393 0 1.00279 126.065 120.957)" fill="url(#paint20_linear_1196_6602)"/>
<rect width="48.0539" height="48.0539" transform="matrix(0.868438 -0.501393 0 1.00279 126.065 120.957)" stroke="#4E4E4E"/>
<rect width="48.0539" height="48.0539" transform="matrix(0.868438 -0.501393 0 1.00279 126.065 120.957)" stroke="#D90CB7"/>
<defs>
<linearGradient id="paint0_linear_1196_6602" x1="73.9291" y1="-8.58106" x2="-19.8551" y2="-9.35767" gradientUnits="userSpaceOnUse">
<stop stop-color="#D90CB7" stop-opacity="0"/>
<stop offset="1" stop-color="#D90CB7"/>
</linearGradient>
<linearGradient id="paint1_linear_1196_6602" x1="34.7082" y1="6.83013" x2="19.8379" y2="121.815" gradientUnits="userSpaceOnUse">
<stop stop-color="#D90CB7" stop-opacity="0"/>
<stop offset="1" stop-color="#D90CB7"/>
</linearGradient>
<linearGradient id="paint2_linear_1196_6602" x1="34.7082" y1="6.83013" x2="19.8379" y2="121.815" gradientUnits="userSpaceOnUse">
<stop stop-color="#D90CB7" stop-opacity="0"/>
<stop offset="1" stop-color="#D90CB7"/>
</linearGradient>
<linearGradient id="paint3_linear_1196_6602" x1="73.9291" y1="-8.58106" x2="-19.8551" y2="-9.35767" gradientUnits="userSpaceOnUse">
<stop stop-color="#D90CB7" stop-opacity="0"/>
<stop offset="1" stop-color="#D90CB7"/>
</linearGradient>
<linearGradient id="paint4_linear_1196_6602" x1="73.9291" y1="-8.58106" x2="-19.8551" y2="-9.35767" gradientUnits="userSpaceOnUse">
<stop stop-color="#D90CB7" stop-opacity="0"/>
<stop offset="1" stop-color="#D90CB7"/>
</linearGradient>
<linearGradient id="paint5_linear_1196_6602" x1="73.9291" y1="-8.58106" x2="-19.8551" y2="-9.35767" gradientUnits="userSpaceOnUse">
<stop stop-color="#D90CB7" stop-opacity="0"/>
<stop offset="1" stop-color="#D90CB7"/>
</linearGradient>
<linearGradient id="paint6_linear_1196_6602" x1="73.9291" y1="-8.58106" x2="-19.8551" y2="-9.35767" gradientUnits="userSpaceOnUse">
<stop stop-color="#D90CB7" stop-opacity="0"/>
<stop offset="1" stop-color="#D90CB7"/>
</linearGradient>
<linearGradient id="paint7_linear_1196_6602" x1="73.9291" y1="-8.58106" x2="-19.8551" y2="-9.35767" gradientUnits="userSpaceOnUse">
<stop stop-color="#D90CB7" stop-opacity="0"/>
<stop offset="1" stop-color="#D90CB7"/>
</linearGradient>
<linearGradient id="paint8_linear_1196_6602" x1="73.9291" y1="-8.58106" x2="-19.8551" y2="-9.35767" gradientUnits="userSpaceOnUse">
<stop stop-color="#D90CB7" stop-opacity="0"/>
<stop offset="1" stop-color="#D90CB7"/>
</linearGradient>
<linearGradient id="paint9_linear_1196_6602" x1="73.9291" y1="-8.58106" x2="-19.8551" y2="-9.35767" gradientUnits="userSpaceOnUse">
<stop stop-color="#D90CB7" stop-opacity="0"/>
<stop offset="1" stop-color="#D90CB7"/>
</linearGradient>
<linearGradient id="paint10_linear_1196_6602" x1="34.7082" y1="6.83013" x2="19.8379" y2="121.815" gradientUnits="userSpaceOnUse">
<stop stop-color="#D90CB7" stop-opacity="0"/>
<stop offset="1" stop-color="#D90CB7"/>
</linearGradient>
<linearGradient id="paint11_linear_1196_6602" x1="34.7082" y1="6.83013" x2="19.8379" y2="121.815" gradientUnits="userSpaceOnUse">
<stop stop-color="#D90CB7" stop-opacity="0"/>
<stop offset="1" stop-color="#D90CB7"/>
</linearGradient>
<linearGradient id="paint12_linear_1196_6602" x1="34.7082" y1="6.83013" x2="19.8379" y2="121.815" gradientUnits="userSpaceOnUse">
<stop stop-color="#D90CB7" stop-opacity="0"/>
<stop offset="1" stop-color="#D90CB7"/>
</linearGradient>
<linearGradient id="paint13_linear_1196_6602" x1="34.7082" y1="6.83013" x2="19.8379" y2="121.815" gradientUnits="userSpaceOnUse">
<stop stop-color="#D90CB7" stop-opacity="0"/>
<stop offset="1" stop-color="#D90CB7"/>
</linearGradient>
<linearGradient id="paint14_linear_1196_6602" x1="34.7082" y1="6.83013" x2="19.8379" y2="121.815" gradientUnits="userSpaceOnUse">
<stop stop-color="#D90CB7" stop-opacity="0"/>
<stop offset="1" stop-color="#D90CB7"/>
</linearGradient>
<linearGradient id="paint15_linear_1196_6602" x1="34.7082" y1="6.83013" x2="19.8379" y2="121.815" gradientUnits="userSpaceOnUse">
<stop stop-color="#D90CB7" stop-opacity="0"/>
<stop offset="1" stop-color="#D90CB7"/>
</linearGradient>
<linearGradient id="paint16_linear_1196_6602" x1="34.7082" y1="6.83013" x2="19.8379" y2="121.815" gradientUnits="userSpaceOnUse">
<stop stop-color="#D90CB7" stop-opacity="0"/>
<stop offset="1" stop-color="#D90CB7"/>
</linearGradient>
<linearGradient id="paint17_linear_1196_6602" x1="34.7082" y1="6.83013" x2="19.8379" y2="121.815" gradientUnits="userSpaceOnUse">
<stop stop-color="#D90CB7" stop-opacity="0"/>
<stop offset="1" stop-color="#D90CB7"/>
</linearGradient>
<linearGradient id="paint18_linear_1196_6602" x1="34.7082" y1="6.83013" x2="19.8379" y2="121.815" gradientUnits="userSpaceOnUse">
<stop stop-color="#D90CB7" stop-opacity="0"/>
<stop offset="1" stop-color="#D90CB7"/>
</linearGradient>
<linearGradient id="paint19_linear_1196_6602" x1="73.9291" y1="-8.58106" x2="-19.8551" y2="-9.35767" gradientUnits="userSpaceOnUse">
<stop stop-color="#D90CB7" stop-opacity="0"/>
<stop offset="1" stop-color="#D90CB7"/>
</linearGradient>
<linearGradient id="paint20_linear_1196_6602" x1="34.7082" y1="6.83013" x2="19.8379" y2="121.815" gradientUnits="userSpaceOnUse">
<stop stop-color="#D90CB7" stop-opacity="0"/>
<stop offset="1" stop-color="#D90CB7"/>
</linearGradient>
</defs>
</svg>
