<svg preserveAspectRatio="none" width="100%" height="100%" overflow="visible" style="display: block;" viewBox="0 0 22.9831 22.6807" fill="none" xmlns="http://www.w3.org/2000/svg">
<g id="Vector">
<path d="M11.4916 22.6807C8.26587 22.6807 5.54419 21.6055 3.32652 19.455C1.10885 17.3046 0 14.5829 0 11.29C0 7.92985 1.07529 5.20817 3.22576 3.1249C5.44344 1.04163 8.19867 0 11.4916 0C14.8517 0 17.607 1.04163 19.7575 3.1249C21.9079 5.20817 22.9831 7.92985 22.9831 11.29C22.9831 14.5829 21.8744 17.3046 19.6567 19.455C17.5062 21.6055 14.7845 22.6807 11.4916 22.6807Z" fill="var(--fill-0, #FF1C89)"/>
<path d="M11.4916 22.6807C8.26587 22.6807 5.54419 21.6055 3.32652 19.455C1.10885 17.3046 0 14.5829 0 11.29C0 7.92985 1.07529 5.20817 3.22576 3.1249C5.44344 1.04163 8.19867 0 11.4916 0C14.8517 0 17.607 1.04163 19.7575 3.1249C21.9079 5.20817 22.9831 7.92985 22.9831 11.29C22.9831 14.5829 21.8744 17.3046 19.6567 19.455C17.5062 21.6055 14.7845 22.6807 11.4916 22.6807Z" fill="var(--fill-1, #D90CB7)"/>
</g>
</svg>
