<svg preserveAspectRatio="none" width="100%" height="100%" overflow="visible" style="display: block;" viewBox="0 0 60.986 73.3848" fill="none" xmlns="http://www.w3.org/2000/svg">
<path id="Vector" d="M29.737 73.3848C24.0248 73.3848 18.4806 72.6792 13.1044 71.2679C7.72824 69.8567 3.36011 67.975 0 65.623L6.55221 50.9057C9.71071 52.9889 13.3732 54.669 17.5398 55.9458C21.7063 57.2227 25.8057 57.8611 29.8378 57.8611C37.4988 57.8611 41.3294 55.9458 41.3294 52.1153C41.3294 50.0992 40.2205 48.6208 38.0028 47.68C35.8524 46.6719 32.3578 45.6303 27.5193 44.5551C22.2103 43.4126 17.775 42.203 14.2133 40.9261C10.6516 39.5821 7.59385 37.4652 5.04016 34.5755C2.48648 31.6858 1.20965 27.7881 1.20965 22.8823C1.20965 18.5814 2.38569 14.7173 4.73777 11.29C7.08985 7.79546 10.5843 5.04017 15.2213 3.0241C19.9254 1.00803 25.6712 0 32.4586 0C37.0956 0 41.6654 0.53762 46.1679 1.61286C50.6705 2.62089 54.6354 4.13294 58.0627 6.149L51.9137 20.9671C45.1935 17.3382 38.6749 15.5237 32.3579 15.5237C28.3929 15.5237 25.5032 16.1285 23.6888 17.3382C21.8743 18.4806 20.9671 19.9927 20.9671 21.8743C20.9671 23.756 22.0423 25.1672 24.1928 26.1081C26.3433 27.0489 29.8042 28.0233 34.5755 29.0314C39.9517 30.1738 44.3871 31.417 47.8816 32.7611C51.4433 34.0379 54.501 36.1212 57.0547 39.0109C59.6756 41.8334 60.986 45.6975 60.986 50.6033C60.986 54.837 59.8099 58.6675 57.4579 62.0948C55.1058 65.5221 51.5777 68.2774 46.8735 70.3607C42.1694 72.3768 36.4572 73.3848 29.737 73.3848Z" fill="var(--fill-0, white)"/>
</svg>
