<svg preserveAspectRatio="none" width="100%" height="100%" overflow="visible" style="display: block;" viewBox="0 0 78.425 73.3848" fill="none" xmlns="http://www.w3.org/2000/svg">
<path id="Vector" d="M39.2125 73.3848C31.753 73.3848 25.0328 71.8055 19.0518 68.647C13.138 65.4885 8.46747 61.1204 5.04016 55.5426C1.68005 49.9648 0 43.6814 0 36.6924C0 29.7034 1.68005 23.42 5.04016 17.8422C8.46747 12.2644 13.138 7.89626 19.0518 4.73776C25.0328 1.57925 31.753 0 39.2125 0C46.6719 0 53.3586 1.57925 59.2723 4.73776C65.2533 7.89626 69.9239 12.2644 73.284 17.8422C76.7113 23.42 78.425 29.7034 78.425 36.6924C78.425 43.6814 76.7113 49.9648 73.284 55.5426C69.9239 61.1204 65.2533 65.4885 59.2723 68.647C53.3586 71.8055 46.6719 73.3848 39.2125 73.3848ZM39.2125 56.8531C42.7742 56.8531 45.9999 56.013 48.8896 54.333C51.7793 52.6529 54.0642 50.3008 55.7442 47.2767C57.4243 44.1854 58.2643 40.6573 58.2643 36.6924C58.2643 32.7275 57.4243 29.233 55.7442 26.2089C54.0642 23.1176 51.7793 20.7319 48.8896 19.0518C45.9999 17.3718 42.7742 16.5317 39.2125 16.5317C35.6508 16.5317 32.4251 17.3718 29.5354 19.0518C26.6457 20.7319 24.3608 23.1176 22.6807 26.2089C21.0007 29.233 20.1607 32.7275 20.1607 36.6924C20.1607 40.6573 21.0007 44.1854 22.6807 47.2767C24.3608 50.3008 26.6457 52.6529 29.5354 54.333C32.4251 56.013 35.6508 56.8531 39.2125 56.8531Z" fill="var(--fill-0, white)"/>
</svg>
