<svg preserveAspectRatio="none" width="100%" height="100%" overflow="visible" style="display: block;" viewBox="0 0 65.0181 70.5623" fill="none" xmlns="http://www.w3.org/2000/svg">
<path id="Vector" d="M30.8458 51.8129H19.9591V70.5623H0V0H32.257C38.6413 0 44.1854 1.07523 48.8896 3.2257C53.5937 5.30897 57.2226 8.33307 59.7763 12.298C62.33 16.1957 63.6069 20.7991 63.6069 26.1081C63.6069 31.2154 62.3972 35.6844 59.978 39.5149C57.6259 43.2782 54.2321 46.2351 49.7968 48.3856L65.0181 70.5623H43.6478L30.8458 51.8129ZM43.4462 26.1081C43.4462 22.8151 42.4046 20.2615 40.3213 18.447C38.238 16.6325 35.1467 15.7253 31.0474 15.7253H19.9591V36.39H31.0474C35.1467 36.39 38.238 35.5164 40.3213 33.7691C42.4046 31.9546 43.4462 29.401 43.4462 26.1081Z" fill="var(--fill-0, white)"/>
</svg>
