<svg preserveAspectRatio="none" width="100%" height="100%" overflow="visible" style="display: block;" viewBox="0 0 69.1511 73.3848" fill="none" xmlns="http://www.w3.org/2000/svg">
<path id="Vector" d="M38.8093 73.3848C31.417 73.3848 24.764 71.8392 18.8502 68.7479C13.0036 65.5893 8.40028 61.2212 5.04017 55.6434C1.68006 50.0656 0 43.7486 0 36.6924C0 29.6362 1.68006 23.3192 5.04017 17.7414C8.40028 12.1636 13.0036 7.82906 18.8502 4.73776C24.764 1.57925 31.417 0 38.8093 0C45.2607 0 51.0737 1.14244 56.2482 3.42732C61.4228 5.71219 65.7238 9.0051 69.1511 13.306L56.4499 24.7976C51.8801 19.287 46.3359 16.5317 39.8173 16.5317C35.9868 16.5317 32.5595 17.3718 29.5354 19.0518C26.5785 20.7319 24.26 23.1176 22.5799 26.2089C20.9671 29.233 20.1607 32.7275 20.1607 36.6924C20.1607 40.6573 20.9671 44.1854 22.5799 47.2767C24.26 50.3008 26.5785 52.6529 29.5354 54.333C32.5595 56.013 35.9868 56.8531 39.8173 56.8531C46.3359 56.8531 51.8801 54.0978 56.4499 48.5872L69.1511 60.0788C65.7238 64.3797 61.4228 67.6726 56.2482 69.9575C51.0737 72.2424 45.2607 73.3848 38.8093 73.3848Z" fill="var(--fill-0, white)"/>
</svg>
