<svg width="121" height="24" viewBox="0 0 121 24" fill="none" xmlns="http://www.w3.org/2000/svg">
<path d="M27.333 11.9916H10.0828L0 0.746582H17.2387L27.333 11.9916Z" fill="url(#paint0_linear_20_1875)"/>
<path d="M0 23.2253H17.2387L27.333 11.9917H10.0828L0 23.2253Z" fill="url(#paint1_linear_20_1875)"/>
<path d="M76.6302 21.2546C77.2179 20.797 77.7826 20.3394 78.3357 19.9047C78.6698 20.2022 78.9925 20.4996 79.3382 20.7741C80.3177 21.5863 81.47 21.8037 82.703 21.7122C83.3828 21.6664 84.0051 21.4834 84.5467 21.0487C85.1805 20.5454 85.5146 19.8704 85.676 19.104C85.8373 18.349 85.8258 17.5711 85.8258 16.8046C85.8258 16.7818 85.8142 16.7703 85.8027 16.7474C85.5377 16.919 85.2957 17.1135 85.0307 17.2622C83.7977 17.9715 82.4725 18.1316 81.1012 17.8571C78.8657 17.4109 77.3562 16.0611 76.6187 13.9677C75.5701 11.0277 76.7224 7.85898 79.4995 6.36041C80.6288 5.74268 81.8618 5.60541 83.1293 5.78844C84.1088 5.92571 84.973 6.30321 85.7451 6.92094C85.7797 6.94382 85.8027 6.9667 85.8373 6.98958C85.8488 6.98958 85.8603 6.98958 85.8949 6.98958C85.8949 6.6464 85.8949 6.31465 85.8949 5.97147C86.667 5.97147 87.4275 5.97147 88.1995 5.97147C88.1995 6.02867 88.2111 6.07442 88.2111 6.13162C88.2111 9.99816 88.2111 13.8761 88.1995 17.7427C88.1995 18.7837 88.0497 19.8132 87.6234 20.7856C87.0933 22.0096 86.206 22.9019 84.9615 23.3938C82.3688 24.4233 79.9489 24.0687 77.7249 22.41C77.2986 22.124 76.9414 21.7236 76.6302 21.2546ZM85.8258 11.8742C85.8258 11.1993 85.8258 10.5129 85.8258 9.83801C85.8258 9.73505 85.7797 9.62066 85.722 9.55202C84.9385 8.61399 83.936 8.07633 82.6914 8.00769C81.7465 7.9505 80.8593 8.16785 80.1218 8.77414C78.9579 9.74649 78.497 11.0163 78.7044 12.5034C79.004 14.5625 80.9975 16.0268 83.1524 15.695C84.201 15.5349 85.0537 15.0201 85.7105 14.1964C85.7681 14.1164 85.8142 14.002 85.8142 13.9105C85.8258 13.2241 85.8258 12.5492 85.8258 11.8742Z" fill="white"/>
<path d="M44.2846 0C44.2846 5.9142 44.2846 11.8055 44.2846 17.7197C43.5241 17.7197 42.7635 17.7197 41.98 17.7197C41.98 17.3765 41.98 17.0448 41.98 16.6787C41.9224 16.7131 41.8878 16.7245 41.8647 16.7474C40.3091 17.9943 38.5461 18.2803 36.6793 17.7312C34.2709 17.0219 32.8536 15.3403 32.4388 12.9152C32.0585 10.6959 32.7038 8.77407 34.3747 7.22974C35.5155 6.17731 36.8752 5.69685 38.4308 5.74261C39.6753 5.77693 40.7816 6.17731 41.7725 6.92088C41.8071 6.94376 41.8302 6.96663 41.8993 7.00095C41.8993 4.65586 41.8993 2.33365 41.8993 0C42.7059 0 43.4895 0 44.2846 0ZM41.8993 11.8627C41.8993 11.1878 41.8993 10.5014 41.8993 9.8265C41.8993 9.73498 41.8763 9.63203 41.8186 9.56339C40.9774 8.55672 39.9058 8.00763 38.5691 7.98475C37.7049 7.97331 36.8867 8.19066 36.2184 8.73975C35.02 9.73498 34.5475 11.0276 34.7895 12.5491C35.1121 14.5739 37.0941 16.0267 39.249 15.6721C40.2745 15.5005 41.1042 15.0086 41.7725 14.2078C41.8647 14.1049 41.8993 14.0019 41.8993 13.8646C41.8993 13.2011 41.8993 12.5377 41.8993 11.8627Z" fill="white"/>
<path d="M58.0548 12.3548C55.0127 12.3548 51.9821 12.3548 48.9284 12.3548C48.9399 12.4921 48.9515 12.6065 48.9745 12.7209C49.1704 13.739 49.6313 14.5969 50.4956 15.2032C51.3137 15.7638 52.2125 15.9239 53.192 15.8324C54.2637 15.7294 55.1279 15.2032 55.9345 14.5512C56.0152 14.4825 56.0958 14.4139 56.1765 14.3453C56.649 14.8257 57.1099 15.3062 57.5823 15.7981C57.2597 16.1756 56.8909 16.5073 56.4876 16.8047C55.2662 17.6741 53.8949 18.0173 52.4199 17.9945C51.3483 17.983 50.3342 17.7199 49.4124 17.1708C48.1218 16.4044 47.3036 15.2719 46.9119 13.8534C46.4394 12.1832 46.5201 10.5245 47.2806 8.95727C48.1564 7.14983 49.6313 6.0974 51.6364 5.82286C52.8002 5.6627 53.9295 5.79998 54.9896 6.34907C56.1419 6.93248 56.937 7.84764 57.4786 8.99159C57.9396 9.96394 58.1009 10.9935 58.1009 12.0574C58.1009 12.1146 58.1009 12.1718 58.0894 12.229C58.0778 12.2518 58.0663 12.2862 58.0548 12.3548ZM49.1704 10.3414C51.3022 10.3414 53.434 10.3414 55.5658 10.3414C55.4505 9.10598 53.941 7.84764 52.5237 7.81332C50.8297 7.77901 49.4354 9.01447 49.1704 10.3414Z" fill="white"/>
<path d="M102.465 17.7199C101.659 17.7199 100.875 17.7199 100.068 17.7199C100.068 17.6399 100.068 17.5598 100.068 17.4797C100.068 15.4664 100.068 13.453 100.057 11.4282C100.057 10.7647 99.9648 10.1012 99.6191 9.51783C99.0083 8.48828 98.0634 7.99638 96.865 7.9735C95.5053 7.95062 94.4567 8.60267 93.5809 9.57503C93.5233 9.63223 93.5118 9.74662 93.5118 9.83814C93.5118 12.3777 93.5118 14.9058 93.5118 17.4454C93.5118 17.5255 93.5118 17.6055 93.5118 17.7085C92.7051 17.7085 91.9216 17.7085 91.1265 17.7085C91.1265 13.7962 91.1265 9.89533 91.1265 5.98304C91.887 5.98304 92.636 5.98304 93.4311 5.98304C93.4311 6.32622 93.4311 6.68084 93.4311 7.08123C93.627 6.93251 93.7768 6.80668 93.9381 6.70372C95.7703 5.44538 97.6947 5.38818 99.6191 6.42918C101.313 7.33289 102.2 8.79715 102.373 10.6961C102.419 11.188 102.442 11.6799 102.442 12.1718C102.454 13.9335 102.442 15.7066 102.442 17.4683C102.465 17.5483 102.465 17.6284 102.465 17.7199Z" fill="white"/>
<path d="M59.7257 16.3813C60.1636 15.8094 60.5669 15.2831 60.9702 14.7455C61.0394 14.7912 61.1085 14.837 61.1776 14.8828C62.1456 15.5348 63.2172 15.9009 64.3926 15.9123C64.9342 15.9238 65.4527 15.7865 65.9252 15.5005C66.6512 15.0658 66.8355 13.9562 65.9252 13.4643C65.5219 13.2469 65.084 13.0982 64.6576 12.9609C63.8625 12.6978 63.0444 12.4919 62.2608 12.2059C61.5809 11.9657 60.9933 11.5424 60.5784 10.9361C60.2443 10.4442 60.129 9.89515 60.1175 9.31174C60.106 8.31651 60.4632 7.48142 61.2122 6.81794C61.8345 6.26884 62.5835 5.97142 63.3901 5.83414C64.2889 5.67399 65.1992 5.69687 66.0865 5.91422C66.9392 6.12013 67.7113 6.49763 68.4257 7.03529C68.0455 7.57294 67.6652 8.1106 67.2849 8.63681C66.9738 8.47666 66.6857 8.30507 66.3746 8.16779C65.4758 7.77885 64.5424 7.6759 63.5975 7.98476C63.1481 8.13348 62.7448 8.3737 62.5835 8.8656C62.4106 9.36894 62.5259 9.78076 62.9868 10.0439C63.3325 10.2383 63.7012 10.3985 64.0815 10.5243C64.9112 10.7989 65.7524 11.0277 66.5705 11.3022C67.1006 11.4738 67.5615 11.7712 67.9648 12.1487C68.6562 12.7779 68.9443 13.5787 68.9212 14.4938C68.8751 15.9352 68.08 16.8618 66.8355 17.4681C65.833 17.96 64.7729 18.0515 63.6782 17.9371C62.6987 17.8456 61.7538 17.6054 60.8896 17.1249C60.5093 16.9075 60.1405 16.6444 59.7257 16.3813Z" fill="white"/>
<path d="M114.323 5.98292C115.095 5.98292 115.844 5.98292 116.627 5.98292C116.627 6.42906 116.627 6.8752 116.627 7.37853C117.814 6.05156 119.301 5.71981 120.972 5.90284C120.972 6.64641 120.972 7.38997 120.972 8.1221C120.027 7.97339 119.128 8.08778 118.287 8.54536C117.653 8.88854 117.134 9.369 116.754 9.98673C116.719 10.0554 116.708 10.1469 116.708 10.227C116.708 12.6521 116.708 15.0659 116.708 17.491C116.708 17.5711 116.708 17.6397 116.708 17.7313C115.913 17.7313 115.129 17.7313 114.323 17.7313C114.323 13.819 114.323 9.90666 114.323 5.98292Z" fill="white"/>
<path d="M107.708 17.7312C106.902 17.7312 106.13 17.7312 105.334 17.7312C105.334 13.8189 105.334 9.91805 105.334 5.99431C106.095 5.99431 106.844 5.99431 107.628 5.99431C107.628 6.44045 107.628 6.87515 107.628 7.38992C108.826 6.05151 110.301 5.71976 111.972 5.90279C111.972 6.64636 111.972 7.37848 111.972 8.12205C111.2 7.99621 110.451 8.05341 109.736 8.32796C108.884 8.6597 108.227 9.23168 107.743 9.99812C107.708 10.0668 107.708 10.1583 107.708 10.2384C107.708 12.6521 107.708 15.0658 107.708 17.4795C107.708 17.5596 107.708 17.6397 107.708 17.7312Z" fill="white"/>
<path d="M73.8762 17.7312C73.1156 17.7312 72.3666 17.7312 71.6176 17.7312C71.5831 17.7312 71.56 17.7198 71.5139 17.7198C71.5139 13.8075 71.5139 9.89521 71.5139 5.98291C72.309 5.98291 73.0926 5.98291 73.8762 5.98291C73.8762 9.89521 73.8762 13.8075 73.8762 17.7312Z" fill="white"/>
<path d="M71.1222 1.81888C71.1222 0.938042 71.7905 0.240234 72.6663 0.240234C73.5421 0.240234 74.245 0.926603 74.2565 1.80744C74.268 2.64252 73.5305 3.36321 72.6663 3.36321C71.8136 3.35177 71.1222 2.67684 71.1222 1.81888Z" fill="white"/>
<defs>
<linearGradient id="paint0_linear_20_1875" x1="2.82549e-10" y1="6.36696" x2="27.3313" y2="6.36696" gradientUnits="userSpaceOnUse">
<stop stop-color="#00B3FF"/>
<stop offset="0.9868" stop-color="#72FFFB"/>
</linearGradient>
<linearGradient id="paint1_linear_20_1875" x1="0.964562" y1="24.8891" x2="26.2738" y2="10.1699" gradientUnits="userSpaceOnUse">
<stop offset="0.00138476" stop-color="#00E8FF"/>
<stop offset="0.1501" stop-color="#00DDFF"/>
<stop offset="0.4126" stop-color="#00BFFF"/>
<stop offset="0.7557" stop-color="#008FFF"/>
<stop offset="0.9947" stop-color="#006AFF"/>
</linearGradient>
</defs>
</svg>
