<svg width="79" height="24" viewBox="0 0 79 24" fill="none" xmlns="http://www.w3.org/2000/svg">
<g clip-path="url(#clip0_20_1836)">
<path d="M72.4325 11.504H69.6373C67.838 11.504 66.874 12.8613 66.874 15.1232V23.2999H61.5727V11.5031H59.3231C57.5237 11.5031 56.5605 12.8604 56.5605 15.1224V23.299H51.2585V7.14086H56.5605V9.59715C57.4285 7.69035 58.6172 7.14086 60.3848 7.14086H66.8748V9.59715C67.7427 7.69035 68.9314 7.14086 70.6991 7.14086H72.4333L72.4325 11.504ZM50.1015 16.4805H39.0488C39.3378 18.2905 40.4622 19.3247 42.3577 19.3247C43.7711 19.3247 44.7677 18.7424 45.0893 17.709L49.7799 19.0336C48.6237 21.845 45.7635 23.5582 42.3577 23.5582C36.6062 23.5582 33.9715 19.0655 33.9715 15.2208C33.9715 11.44 36.2846 6.91533 42.0361 6.91533C48.1409 6.91533 50.165 11.504 50.165 14.8976C50.169 15.426 50.1478 15.9542 50.1015 16.4805ZM44.9607 13.346C44.832 11.9558 43.8354 10.6641 42.0369 10.6641C40.3653 10.6641 39.3704 11.4064 39.0488 13.346H44.9607ZM24.7189 23.299H29.3769L35.1927 7.1425H29.8598L27.0321 16.5453L24.14 7.14168H18.838L24.7189 23.299ZM2.9986 23.299H8.26808V11.504H13.2819V23.2999H18.5188V7.14168H8.26808V6.14031C8.26808 5.04133 9.03912 4.36309 10.2604 4.36309H13.2811V0H9.3933C5.56902 0 2.9986 2.35951 2.9986 5.81636V7.14168H0.010498V11.5048H2.9986V23.299Z" fill="#E8E8E8"/>
<path d="M75.7108 23.7883C77.5208 23.7883 78.988 22.3121 78.988 20.4914C78.988 18.6707 77.5208 17.1953 75.7108 17.1953C73.9009 17.1953 72.4329 18.6715 72.4329 20.4922C72.4329 22.3129 73.9009 23.7883 75.7108 23.7883Z" fill="#E8E8E8"/>
</g>
<defs>
<clipPath id="clip0_20_1836">
<rect width="79" height="24" fill="white"/>
</clipPath>
</defs>
</svg>
