<svg width="107" height="28" viewBox="0 0 107 28" fill="none" xmlns="http://www.w3.org/2000/svg">
<g clip-path="url(#clip0_20_1832)">
<path d="M0.0917077 0.979686L14.7876 25.5628C15.0555 26.0099 15.7308 25.9909 15.9745 25.5303C16.0104 25.4622 16.0404 25.4044 16.0644 25.3568C17.2453 22.9813 17.8583 20.3618 17.8546 17.7065C17.8546 8.30394 10.2864 0.610267 0.708531 0.00149269C0.176229 -0.0328299 -0.175343 0.531686 0.0917077 0.979686Z" fill="white"/>
<path d="M30.6865 1.00198L21.3146 16.6802C21.0412 17.1363 20.3453 17.1092 20.1187 16.6305L20.1115 16.6151C19.4072 15.1087 19.046 13.4635 19.0541 11.7991C19.0541 5.68069 23.861 0.646104 30.0265 0.0273945C30.575 -0.0295087 30.9635 0.537717 30.6865 1.00198Z" fill="#00F8D2"/>
<path d="M42.5663 20.4573H39.7204C39.5868 20.4592 39.4559 20.42 39.345 20.3451C39.2342 20.2703 39.1487 20.1632 39.1 20.0382L34.4262 7.64774C34.2697 7.23226 34.588 6.79148 35.0466 6.79148H36.7766C37.0544 6.79148 37.3026 6.95948 37.397 7.21238L41.1375 17.184L44.8915 7.21148C44.94 7.08633 45.0254 6.97905 45.1363 6.904C45.2472 6.82894 45.3782 6.78968 45.5119 6.79148H47.2293C47.6861 6.79148 48.0053 7.23045 47.8497 7.64684L43.1867 20.0373C43.1383 20.1626 43.053 20.2701 42.9421 20.3453C42.8312 20.4205 42.7001 20.459 42.5663 20.4573ZM51.2836 4.84051C50.8322 4.84051 50.4555 4.69991 50.1534 4.41871C50.0065 4.28444 49.8901 4.12002 49.8121 3.93659C49.734 3.75317 49.6962 3.55502 49.7011 3.35561C49.7011 2.93711 49.8519 2.58486 50.1534 2.29884C50.4543 2.01161 50.826 1.8683 51.2683 1.8689C51.7011 1.8695 52.0683 2.01281 52.3698 2.29884C52.6707 2.58486 52.8212 2.93711 52.8212 3.35561C52.8212 3.78314 52.6731 4.1375 52.377 4.41871C52.0815 4.70051 51.717 4.84051 51.2836 4.84051ZM50.4465 6.82038H52.0632C52.4283 6.82038 52.7241 7.1058 52.7241 7.45806V19.8223C52.7224 19.9078 52.704 19.9921 52.6699 20.0705C52.6358 20.1488 52.5867 20.2196 52.5253 20.2788C52.4639 20.3381 52.3915 20.3845 52.3122 20.4156C52.2329 20.4467 52.1483 20.4618 52.0632 20.46H50.4465C50.0823 20.46 49.7856 20.1746 49.7856 19.8214V7.45625C49.7874 7.37085 49.8059 7.28662 49.84 7.2084C49.8742 7.13017 49.9234 7.05947 49.9847 7.00033C50.0461 6.9412 50.1185 6.89479 50.1977 6.86376C50.2769 6.83273 50.3615 6.81859 50.4465 6.82038ZM67.2689 6.82038H68.8451C69.2093 6.82038 69.506 7.1049 69.506 7.45806V19.8214C69.5044 19.9069 69.486 19.9912 69.4518 20.0696C69.4177 20.1479 69.3686 20.2187 69.3072 20.2779C69.2458 20.3371 69.1734 20.3836 69.0941 20.4147C69.0148 20.4458 68.9302 20.4609 68.8451 20.4591H67.179C67.0134 20.4621 66.8529 20.4016 66.7302 20.2898C66.6076 20.178 66.532 20.0234 66.519 19.8575L66.4408 18.4819C66.03 19.1777 65.4522 19.759 64.7602 20.1728C64.0541 20.6003 63.2209 20.8141 62.2606 20.8141C60.2731 20.8276 58.3592 20.0593 56.9285 18.6734C56.2437 18.0113 55.6944 17.2208 55.3119 16.3467C54.9225 15.455 54.7252 14.4906 54.7328 13.5169C54.7328 12.5444 54.9213 11.6283 55.2984 10.7684C55.6681 9.92015 56.2007 9.15344 56.8656 8.51213C57.5387 7.86375 58.3268 7.34783 59.189 6.99109C60.087 6.61894 61.05 6.431 62.0214 6.43832C63.047 6.43832 63.9531 6.66322 64.7396 7.11303C65.5043 7.54483 66.1707 8.13245 66.6961 8.83819L66.6116 7.496C66.5873 7.12929 66.8903 6.82038 67.2689 6.82038ZM62.1895 18.0719C63.0174 18.0719 63.7427 17.8741 64.3655 17.4784C64.9833 17.0855 65.4836 16.5318 65.8131 15.8761C66.156 15.2035 66.3278 14.4581 66.3284 13.6397C66.3284 12.813 66.1542 12.063 65.806 11.3898C65.4742 10.7356 64.9744 10.1824 64.3583 9.78748C63.7415 9.39187 63.0186 9.19406 62.1895 9.19406C61.3701 9.19406 60.6217 9.39398 59.9443 9.7938C59.2792 10.183 58.7247 10.7372 58.3339 11.4034C57.9383 12.076 57.7405 12.8214 57.7405 13.6397C57.7405 14.4671 57.9452 15.2147 58.3546 15.8824C58.7552 16.5422 59.3138 17.0909 59.9794 17.4784C60.6526 17.8741 61.3893 18.0719 62.1895 18.0719ZM79.502 6.43832C80.8765 6.43832 82.1266 6.76107 83.2523 7.40658C84.3536 8.02966 85.2793 8.92349 85.9426 10.0043C86.611 11.0911 86.9452 12.2984 86.9452 13.6262C86.9511 14.5863 86.7537 15.5368 86.3661 16.4144C85.9856 17.276 85.441 18.0544 84.7629 18.7059C84.0802 19.3653 83.2892 19.8813 82.3901 20.2541C81.4732 20.629 80.4919 20.8193 79.502 20.8141C78.5129 20.8141 77.6488 20.5937 76.9097 20.1529C76.1874 19.7284 75.5677 19.1485 75.0952 18.4548V19.8232C75.0952 20.1755 74.8002 20.4609 74.4343 20.4609H72.8176C72.4525 20.4609 72.1567 20.1755 72.1567 19.8232V0.638706C72.1567 0.286448 72.4516 0.000125314 72.8176 0.000125314H74.4343C74.7993 0.000125314 75.0952 0.285545 75.0952 0.637803V8.79755C75.5646 8.09923 76.1848 7.51632 76.9097 7.09225C77.6494 6.6557 78.5135 6.43772 79.502 6.43832ZM79.4741 18.0565C80.2929 18.0571 81.0413 17.8572 81.7193 17.4568C82.3861 17.0673 82.9428 16.5133 83.3369 15.8472C83.7367 15.1762 83.9443 14.4073 83.9366 13.6253C83.9366 12.7979 83.7343 12.0477 83.3297 11.3744C82.9329 10.7103 82.374 10.1588 81.7058 9.77213C81.0284 9.37684 80.2575 9.17216 79.4741 9.17961C78.6546 9.17901 77.9341 9.37892 77.3125 9.77935C76.6939 10.1767 76.1918 10.7322 75.8577 11.3889C75.51 12.0615 75.3358 12.807 75.3352 13.6253C75.3352 14.4424 75.5094 15.1876 75.8577 15.8608C76.1907 16.5163 76.6932 17.0698 77.3125 17.4631C77.9341 17.8599 78.6546 18.0577 79.4741 18.0565ZM88.9962 19.8205V0.637803C88.9978 0.552396 89.0162 0.468151 89.0502 0.389878C89.0843 0.311605 89.1334 0.240839 89.1947 0.181622C89.256 0.122405 89.3283 0.0758976 89.4074 0.0447558C89.4866 0.0136141 89.5711 -0.00155151 89.6562 0.000125314H91.2738C91.3588 -0.00155151 91.4433 0.0136141 91.5225 0.0447558C91.6017 0.0758976 91.674 0.122405 91.7353 0.181622C91.7965 0.240839 91.8456 0.311605 91.8797 0.389878C91.9137 0.468151 91.9321 0.552396 91.9337 0.637803V19.8214C91.9321 19.9068 91.9137 19.9911 91.8797 20.0693C91.8456 20.1476 91.7965 20.2184 91.7353 20.2776C91.674 20.3368 91.6017 20.3833 91.5225 20.4145C91.4433 20.4456 91.3588 20.4608 91.2738 20.4591H89.6562C89.292 20.4582 88.9962 20.1719 88.9962 19.8205ZM104.375 6.81858H106.105C106.564 6.81858 106.882 7.25935 106.726 7.67574L99.4687 26.8575C99.4194 26.982 99.3337 27.0885 99.223 27.1632C99.1122 27.2378 98.9816 27.277 98.8483 27.2757H97.13C96.6723 27.2757 96.3531 26.8368 96.5096 26.4213L98.7458 20.4564L93.9928 7.67122C93.8382 7.25574 94.1574 6.81858 94.6141 6.81858H96.4044C96.6894 6.81858 96.9421 6.99471 97.032 7.25664L100.215 16.5698L103.757 7.23677C103.806 7.11256 103.891 7.00617 104.001 6.93165C104.111 6.85714 104.242 6.81712 104.375 6.81858Z" fill="white"/>
</g>
<defs>
<clipPath id="clip0_20_1832">
<rect width="107" height="28" fill="white"/>
</clipPath>
</defs>
</svg>
