<svg width="221" height="179" viewBox="0 0 221 179" fill="none" xmlns="http://www.w3.org/2000/svg">
<path d="M86.6416 0C88.0582 1.1731e-05 89.4205 0.544778 90.4492 1.52148L98.4609 9.12793L98.1162 9.49023L97.9678 9.64551L99.6592 11.2881L99.3105 11.6465L99.1807 11.7793L100.857 13.4482L100.505 13.8027L100.396 13.9111L102.057 15.6094L101.699 15.959L101.613 16.042L103.256 17.7715L102.894 18.1152L102.835 18.1699L104.074 19.5176H104.446V19.9219L104.456 19.9326L104.446 19.9414V155.662H103.875L102.832 156.708L102.894 156.771L103.242 157.13L101.614 158.712L101.699 158.803L102.043 159.167L100.398 160.719L100.505 160.835L100.844 161.203L99.1846 162.728L99.3105 162.867L99.6445 163.239L97.9746 164.736L98.1162 164.898L98.4453 165.274L84.3525 177.628C83.3433 178.513 82.0484 179 80.708 179H52.8896C51.5493 179 50.2544 178.512 49.2451 177.628L34.4727 164.68C33.2676 163.623 32.5762 162.095 32.5762 160.49V156.397C32.5761 155.079 32.0095 153.826 31.0215 152.96L11.5156 135.864C10.3103 134.808 9.61915 133.28 9.61914 131.675V128.34C9.61914 127.022 9.05154 125.768 8.06348 124.902L1.89648 119.497C0.691221 118.441 6.56891e-05 116.913 0 115.308V75.6133C9.19628e-05 74.008 0.691244 72.4802 1.89648 71.4238L7.08594 66.876C8.07382 66.0099 8.64062 64.7564 8.64062 63.4385V52.7578C8.64062 51.1525 9.33191 49.6248 10.5371 48.5684L24.3672 36.4463C25.3552 35.5803 25.9227 34.3277 25.9229 33.0098V28.9463C25.9229 27.341 26.6141 25.8133 27.8193 24.7568L46.6523 8.25C47.6617 7.36529 48.9573 6.87793 50.2979 6.87793H58.6035C59.313 6.87793 60.0127 6.71036 60.6465 6.38965L72.0967 0.595703C72.8703 0.204207 73.7253 0 74.5918 0H86.6416ZM170.562 37.2119C170.562 36.0014 170.082 34.8407 169.23 33.9854L155.58 20.2783C154.728 19.423 153.573 18.9434 152.369 18.9434H147.201C146.228 18.9433 145.272 18.6856 144.43 18.1973L136.505 13.6025C135.815 13.2024 135.031 12.9922 134.234 12.9922H126.271C125.004 12.9923 123.794 13.5237 122.935 14.459L117.554 20.3125V154.674L127.511 164.672C128.363 165.527 129.517 166.008 130.721 166.008H150.411C151.615 166.008 152.77 165.527 153.622 164.672L164.205 154.045C165.057 153.19 165.536 152.029 165.536 150.818V147.489C165.536 146.015 166.119 144.601 167.158 143.558L181.545 129.112C182.397 128.257 182.876 127.096 182.876 125.886V123.212C182.876 121.738 183.459 120.323 184.498 119.28L188.811 114.95C189.662 114.095 190.142 112.934 190.142 111.724V77.5908C190.142 76.3803 189.662 75.2196 188.811 74.3643L185.237 70.7764C184.198 69.7332 183.614 68.3182 183.614 66.8438V57.8145C183.614 56.604 183.136 55.4432 182.284 54.5879L172.184 44.4473C171.145 43.4041 170.562 41.9891 170.562 40.5146V37.2119ZM50.4385 40.5146C50.4385 41.9891 49.8554 43.4041 48.8164 44.4473L38.7158 54.5879C37.864 55.4432 37.3858 56.604 37.3857 57.8145V66.8438C37.3857 68.3182 36.8017 69.7332 35.7627 70.7764L32.1895 74.3643C31.3376 75.2196 30.8584 76.3803 30.8584 77.5908V111.724C30.8584 112.934 31.3376 114.095 32.1895 114.95L36.502 119.28C37.5407 120.323 38.124 121.738 38.124 123.212V125.886C38.1241 127.096 38.6032 128.257 39.4551 129.112L53.8418 143.558C54.8805 144.601 55.4638 146.015 55.4639 147.489V150.818C55.4639 152.029 55.9431 153.19 56.7949 154.045L67.3779 164.672C68.2297 165.527 69.3851 166.008 70.5889 166.008H90.2793C91.483 166.008 92.6375 165.527 93.4893 164.672L103.446 154.674V20.3125L98.0654 14.459C97.2056 13.5237 95.9961 12.9923 94.7295 12.9922H86.7656C85.9689 12.9922 85.1854 13.2024 84.4951 13.6025L76.5703 18.1973C75.7279 18.6856 74.7718 18.9433 73.7988 18.9434H68.6309C67.4271 18.9434 66.2717 19.423 65.4199 20.2783L51.7695 33.9854C50.9177 34.8407 50.4385 36.0014 50.4385 37.2119V40.5146ZM171.562 40.5146C171.562 41.7252 172.041 42.8859 172.893 43.7412L182.992 53.8828C184.031 54.926 184.614 56.3401 184.614 57.8145V66.8438C184.614 68.0542 185.094 69.215 185.945 70.0703L189.519 73.6582C190.557 74.7014 191.142 76.1164 191.142 77.5908V111.724C191.142 113.198 190.558 114.612 189.519 115.655L185.207 119.985C184.355 120.841 183.876 122.001 183.876 123.212V125.886C183.876 127.36 183.293 128.774 182.254 129.817L167.867 144.263C167.015 145.118 166.536 146.279 166.536 147.489V150.818C166.536 152.293 165.953 153.708 164.914 154.751L154.33 165.378C153.291 166.421 151.881 167.008 150.411 167.008H130.721C130.166 167.008 129.62 166.924 129.1 166.764L129.469 167.122C130.316 167.946 131.449 168.406 132.627 168.406H153.959C155.137 168.406 156.27 167.946 157.117 167.122L168.531 156.024C169.415 155.165 169.914 153.982 169.914 152.746V149.278C169.914 147.773 170.522 146.331 171.6 145.283L186.994 130.314C187.878 129.455 188.377 128.273 188.377 127.037V124.245C188.377 122.74 188.985 121.298 190.062 120.25L194.73 115.711C195.614 114.852 196.113 113.669 196.113 112.434V77.2021C196.113 75.9664 195.614 74.7839 194.73 73.9248L190.85 70.1514C189.772 69.1035 189.163 67.6616 189.163 66.1562V56.8105C189.163 55.5746 188.665 54.3914 187.781 53.5322L176.95 43.002C175.872 41.9541 175.265 40.5122 175.265 39.0068V35.5654C175.265 34.3296 174.765 33.1472 173.882 32.2881L159.202 18.0137C158.355 17.1901 157.222 16.7305 156.044 16.7305H150.233C149.286 16.7304 148.355 16.4864 147.528 16.0225L138.892 11.1738C138.214 10.7937 137.451 10.5938 136.676 10.5938H127.881C126.639 10.5938 125.451 11.1048 124.594 12.0078L124.239 12.3799C124.879 12.1266 125.568 11.9922 126.271 11.9922H134.234C135.207 11.9922 136.163 12.249 137.006 12.7373L144.932 17.332C145.622 17.7321 146.404 17.9433 147.201 17.9434H152.369C153.839 17.9434 155.249 18.5292 156.288 19.5723L169.939 33.2793C170.978 34.3225 171.562 35.7375 171.562 37.2119V40.5146ZM45.7354 39.0068C45.7354 40.5122 45.1275 41.9541 44.0498 43.002L33.2197 53.5322C32.3361 54.3914 31.8369 55.5746 31.8369 56.8105V66.1562C31.8369 67.6616 31.2281 69.1035 30.1504 70.1514L26.2695 73.9248C25.3861 74.7839 24.8868 75.9664 24.8867 77.2021V112.434C24.8867 113.669 25.3862 114.852 26.2695 115.711L30.9375 120.25C32.0151 121.298 32.623 122.74 32.623 124.245V127.037C32.6232 128.273 33.1224 129.455 34.0059 130.314L49.4004 145.283C50.4781 146.331 51.0859 147.773 51.0859 149.278V152.746C51.0859 153.982 51.5852 155.165 52.4688 156.024L63.8828 167.122C64.73 167.946 65.8626 168.406 67.041 168.406H88.373C89.5514 168.406 90.6841 167.946 91.5312 167.122L91.8994 166.764C91.379 166.923 90.8336 167.008 90.2793 167.008H70.5889C69.1186 167.008 67.7089 166.421 66.6699 165.378L56.0859 154.751C55.047 153.708 54.4639 152.293 54.4639 150.818V147.489C54.4638 146.279 53.9846 145.118 53.1328 144.263L38.7461 129.817C37.7073 128.774 37.1241 127.36 37.124 125.886V123.212C37.124 122.001 36.6448 120.841 35.793 119.985L31.4814 115.655C30.4425 114.612 29.8584 113.198 29.8584 111.724V77.5908C29.8584 76.1164 30.4425 74.7014 31.4814 73.6582L35.0547 70.0703C35.9064 69.215 36.3857 68.0542 36.3857 66.8438V57.8145C36.3858 56.3401 36.9689 54.926 38.0078 53.8828L48.1074 43.7412C48.9593 42.8859 49.4385 41.7252 49.4385 40.5146V37.2119C49.4385 35.7375 50.0216 34.3225 51.0605 33.2793L64.7119 19.5723C65.7509 18.5292 67.1607 17.9434 68.6309 17.9434H73.7988C74.5955 17.9433 75.3782 17.7321 76.0684 17.332L83.9941 12.7373C84.8365 12.249 85.7927 11.9922 86.7656 11.9922H94.7295C95.4321 11.9922 96.1198 12.1268 96.7598 12.3799L96.4062 12.0078C95.549 11.1048 94.3606 10.5938 93.1191 10.5938H84.3242C83.5487 10.5938 82.7856 10.7937 82.1084 11.1738L73.4717 16.0225C72.6453 16.4864 71.7137 16.7304 70.7666 16.7305H64.9561C63.7777 16.7305 62.645 17.1901 61.7979 18.0137L47.1182 32.2881C46.2347 33.1472 45.7354 34.3296 45.7354 35.5654V39.0068ZM176.265 39.0068C176.265 40.2427 176.764 41.425 177.647 42.2842L188.478 52.8154C189.555 53.8633 190.163 55.3052 190.163 56.8105V66.1562C190.163 67.392 190.663 68.5745 191.546 69.4336L195.428 73.208C196.505 74.2558 197.113 75.697 197.113 77.2021V112.434C197.113 113.939 196.505 115.381 195.428 116.429L190.76 120.967C189.876 121.826 189.377 123.009 189.377 124.245V127.037C189.377 128.542 188.769 129.983 187.691 131.031L172.297 146.001C171.413 146.86 170.914 148.042 170.914 149.278V152.746C170.914 154.251 170.305 155.693 169.228 156.741L157.814 167.839C156.781 168.844 155.398 169.406 153.959 169.406H132.627C132.069 169.406 131.52 169.321 130.996 169.159L131.428 169.566C132.27 170.362 133.383 170.805 134.538 170.805H157.502C158.658 170.805 159.77 170.362 160.612 169.566L172.86 158.001C173.773 157.139 174.291 155.937 174.291 154.678V151.063C174.291 149.53 174.922 148.063 176.035 147.012L192.447 131.516C193.36 130.654 193.878 129.451 193.878 128.191V125.273C193.878 123.74 194.509 122.274 195.622 121.223L200.654 116.471C201.567 115.609 202.085 114.406 202.085 113.147V76.8105C202.085 75.5515 201.567 74.3483 200.654 73.4863L196.457 69.5234C195.344 68.4721 194.713 67.0053 194.713 65.4717V55.8018C194.713 54.5427 194.194 53.3404 193.281 52.4785L181.712 41.5537C180.599 40.5025 179.968 39.0365 179.968 37.5029V33.916C179.968 32.6569 179.45 31.4537 178.537 30.5918L162.824 15.7549C161.982 14.9595 160.869 14.5166 159.714 14.5166H153.27C152.346 14.5165 151.437 14.2852 150.625 13.8428L141.28 8.74805C140.615 8.38556 139.871 8.19539 139.114 8.19531H129.495C128.277 8.19531 127.109 8.68706 126.255 9.56055L125.837 9.98633C126.481 9.72985 127.174 9.59375 127.881 9.59375H136.676C137.623 9.59375 138.554 9.83781 139.381 10.3018L148.019 15.1504C148.696 15.5304 149.458 15.7304 150.233 15.7305H156.044C157.483 15.7305 158.866 16.2921 159.899 17.2969L174.579 31.5713C175.657 32.6191 176.265 34.0602 176.265 35.5654V39.0068ZM41.0322 37.5029C41.0321 39.0365 40.4014 40.5024 39.2881 41.5537L27.7188 52.4785C26.806 53.3404 26.2872 54.5427 26.2871 55.8018V65.4717C26.2871 67.0053 25.6564 68.4721 24.543 69.5234L20.3457 73.4863C19.4331 74.3483 18.915 75.5515 18.915 76.8105V113.147C18.9151 114.406 19.4332 115.609 20.3457 116.471L25.3779 121.223C26.4911 122.274 27.1221 123.74 27.1221 125.273V128.191C27.1221 129.451 27.6399 130.654 28.5527 131.516L44.9648 147.012C46.0782 148.063 46.709 149.53 46.709 151.063V154.678C46.709 155.937 47.227 157.139 48.1396 158.001L60.3877 169.566C61.2301 170.362 62.3425 170.805 63.498 170.805H86.4619C87.6174 170.805 88.7299 170.362 89.5723 169.566L90.0029 169.159C89.4794 169.321 88.9306 169.406 88.373 169.406H67.041C65.6016 169.406 64.219 168.844 63.1855 167.839L51.7725 156.741C50.6948 155.693 50.0859 154.251 50.0859 152.746V149.278C50.0859 148.042 49.5867 146.86 48.7031 146.001L33.3086 131.031C32.2311 129.983 31.6232 128.542 31.623 127.037V124.245C31.623 123.009 31.1238 121.826 30.2402 120.967L25.5723 116.429C24.4946 115.381 23.8867 113.939 23.8867 112.434V77.2021C23.8868 75.697 24.4949 74.2558 25.5723 73.208L29.4541 69.4336C30.3374 68.5745 30.8369 67.392 30.8369 66.1562V56.8105C30.8369 55.3052 31.4448 53.8633 32.5225 52.8154L43.3525 42.2842C44.236 41.425 44.7354 40.2427 44.7354 39.0068V35.5654C44.7354 34.0603 45.3434 32.6191 46.4209 31.5713L61.1006 17.2969C62.134 16.2921 63.5167 15.7305 64.9561 15.7305H70.7666C71.542 15.7304 72.3044 15.5304 72.9814 15.1504L81.6191 10.3018C82.4456 9.83781 83.3771 9.59375 84.3242 9.59375H93.1191C93.826 9.59375 94.5184 9.73006 95.1621 9.98633L94.7451 9.56055C93.891 8.68706 92.7231 8.19531 91.5049 8.19531H81.8857C81.1294 8.19539 80.3846 8.38556 79.7197 8.74805L70.375 13.8428C69.5634 14.2852 68.6542 14.5165 67.7305 14.5166H61.2861C60.1306 14.5166 59.0181 14.9595 58.1758 15.7549L42.4629 30.5918C41.5502 31.4537 41.0322 32.6569 41.0322 33.916V37.5029ZM180.968 37.5029C180.968 38.7619 181.486 39.9643 182.398 40.8262L193.968 51.751C195.081 52.8022 195.713 54.2682 195.713 55.8018V65.4717C195.713 66.7309 196.231 67.9339 197.144 68.7959L201.341 72.7588C202.454 73.8101 203.085 75.2769 203.085 76.8105V113.147C203.085 114.681 202.454 116.147 201.341 117.198L196.309 121.949C195.396 122.811 194.878 124.014 194.878 125.273V128.191C194.878 129.725 194.247 131.191 193.134 132.242L176.722 147.739C175.809 148.601 175.291 149.804 175.291 151.063V154.678C175.291 156.211 174.66 157.677 173.547 158.729L161.299 170.294C160.271 171.264 158.913 171.805 157.502 171.805H134.538C133.975 171.805 133.421 171.717 132.893 171.552L133.388 172.007C134.225 172.776 135.319 173.203 136.453 173.203H161.041C162.175 173.203 163.269 172.776 164.106 172.007L177.193 159.978C178.133 159.114 178.669 157.893 178.669 156.612V152.844C178.669 151.284 179.322 149.796 180.468 148.742L197.903 132.715C198.843 131.851 199.379 130.63 199.379 129.35V126.298C199.379 124.738 200.031 123.25 201.178 122.196L206.581 117.229C207.521 116.366 208.057 115.145 208.057 113.864V76.4141C208.057 75.1337 207.521 73.9127 206.581 73.0488L202.06 68.8926C200.913 67.8388 200.262 66.3504 200.262 64.791V54.79C200.262 53.5098 199.726 52.2887 198.786 51.4248L186.47 40.1035C185.323 39.0497 184.671 37.5615 184.671 36.002V32.2617C184.671 30.9814 184.135 29.7603 183.195 28.8965L166.445 13.5C165.608 12.7304 164.514 12.3037 163.38 12.3037H156.31C155.407 12.3037 154.517 12.0827 153.719 11.6592L143.67 6.3252C143.016 5.9782 142.287 5.79688 141.548 5.79688H131.112C129.915 5.79699 128.767 6.2722 127.916 7.11914L127.438 7.59375C128.086 7.33384 128.783 7.19531 129.495 7.19531H139.114C140.038 7.19539 140.947 7.42766 141.759 7.87012L151.104 12.9648C151.768 13.3273 152.513 13.5165 153.27 13.5166H159.714C161.125 13.5166 162.483 14.0571 163.511 15.0273L179.224 29.8643C180.337 30.9156 180.968 32.3824 180.968 33.916V37.5029ZM36.3291 36.002C36.3291 37.5615 35.6767 39.0498 34.5303 40.1035L22.2139 51.4248C21.2742 52.2887 20.7384 53.5098 20.7383 54.79V64.791C20.7383 66.3504 20.0865 67.8388 18.9404 68.8926L14.4189 73.0488C13.4792 73.9127 12.9434 75.1337 12.9434 76.4141V113.864C12.9434 115.145 13.4792 116.366 14.4189 117.229L19.8223 122.196C20.9686 123.25 21.621 124.738 21.6211 126.298V129.35C21.6211 130.63 22.1569 131.851 23.0967 132.715L40.5322 148.742C41.6785 149.796 42.3309 151.284 42.3311 152.844V156.612C42.3311 157.893 42.867 159.114 43.8066 159.978L56.8936 172.007C57.7309 172.776 58.8246 173.203 59.959 173.203H84.5469C85.6813 173.203 86.7749 172.776 87.6123 172.007L88.1064 171.552C87.5783 171.717 87.0247 171.805 86.4619 171.805H63.498C62.0867 171.805 60.7287 171.264 59.7012 170.294L47.4531 158.729C46.3398 157.677 45.709 156.211 45.709 154.678V151.063C45.709 149.804 45.191 148.601 44.2783 147.739L27.8662 132.242C26.7529 131.191 26.1221 129.725 26.1221 128.191V125.273C26.1221 124.014 25.6042 122.811 24.6914 121.949L19.6592 117.198C18.546 116.147 17.9151 114.681 17.915 113.147V76.8105C17.915 75.2769 18.5458 73.8101 19.6592 72.7588L23.8564 68.7959C24.7693 67.9339 25.2871 66.7308 25.2871 65.4717V55.8018C25.2872 54.2682 25.9189 52.8022 27.0322 51.751L38.6016 40.8262C39.5142 39.9643 40.0321 38.7619 40.0322 37.5029V33.916C40.0322 32.3824 40.663 30.9156 41.7764 29.8643L57.4893 15.0273C58.5168 14.0571 59.8748 13.5166 61.2861 13.5166H67.7305C68.4869 13.5165 69.2315 13.3273 69.8965 12.9648L79.2412 7.87012C80.0528 7.42766 80.962 7.19539 81.8857 7.19531H91.5049C92.2162 7.19531 92.913 7.33406 93.5605 7.59375L93.084 7.11914C92.2334 6.27219 91.0847 5.797 89.8877 5.79688H79.4521C78.7128 5.79688 77.9839 5.9782 77.3301 6.3252L67.2812 11.6592C66.4832 12.0827 65.5933 12.3037 64.6904 12.3037H57.6201C56.4857 12.3037 55.3921 12.7304 54.5547 13.5L37.8047 28.8965C36.8649 29.7603 36.3292 30.9814 36.3291 32.2617V36.002ZM185.671 36.002C185.671 37.2824 186.207 38.5033 187.146 39.3672L199.463 50.6885C200.609 51.7422 201.262 53.2306 201.262 54.79V64.791C201.262 66.0715 201.796 67.2933 202.736 68.1572L207.258 72.3125C208.404 73.3662 209.057 74.8546 209.057 76.4141V113.864C209.057 115.424 208.404 116.912 207.258 117.966L201.854 122.933C200.915 123.796 200.379 125.018 200.379 126.298V129.35C200.379 130.909 199.726 132.397 198.58 133.451L181.145 149.479C180.205 150.342 179.669 151.563 179.669 152.844V156.612C179.669 158.172 179.016 159.66 177.87 160.714L164.783 172.743C163.762 173.682 162.427 174.203 161.041 174.203H136.453C135.885 174.203 135.325 174.114 134.792 173.945L135.347 174.442C136.179 175.189 137.256 175.602 138.371 175.602H164.577C165.692 175.602 166.769 175.189 167.602 174.442L181.529 161.953C182.494 161.088 183.046 159.85 183.046 158.55V154.622C183.046 153.039 183.719 151.53 184.896 150.475L203.363 133.914C204.328 133.049 204.88 131.811 204.88 130.511V127.32C204.88 125.737 205.553 124.228 206.729 123.173L212.512 117.987C213.476 117.122 214.028 115.884 214.028 114.584V76.0156C214.028 74.7158 213.476 73.4776 212.512 72.6123L207.659 68.2617C206.482 67.2063 205.811 65.6967 205.811 64.1133V53.7754C205.811 52.4754 205.258 51.2373 204.293 50.3721L191.224 38.6514C190.047 37.5959 189.374 36.0873 189.374 34.5039V30.6055C189.374 29.3055 188.821 28.0674 187.856 27.2021L170.067 11.249C169.235 10.5027 168.158 10.0909 167.043 10.0908H159.352C158.468 10.0908 157.597 9.87828 156.812 9.47168L146.06 3.90527C145.416 3.57227 144.703 3.39844 143.979 3.39844H132.734C131.557 3.39844 130.424 3.85789 129.577 4.68066L129.042 5.2002C129.694 4.93657 130.396 4.79693 131.112 4.79688H141.548C142.451 4.79688 143.341 5.01884 144.139 5.44238L154.188 10.7754C154.841 11.1224 155.57 11.3037 156.31 11.3037H163.38C164.765 11.3037 166.101 11.8248 167.122 12.7637L183.872 28.1602C185.018 29.2138 185.671 30.7023 185.671 32.2617V36.002ZM31.626 34.5039C31.626 36.0873 30.9533 37.5959 29.7764 38.6514L16.707 50.3721C15.7422 51.2373 15.1895 52.4754 15.1895 53.7754V64.1133C15.1895 65.6967 14.5178 67.2063 13.3408 68.2617L8.48828 72.6123C7.52359 73.4776 6.97168 74.7157 6.97168 76.0156V114.584C6.97168 115.884 7.52363 117.122 8.48828 117.987L14.2705 123.173C15.4475 124.228 16.1201 125.737 16.1201 127.32V130.511C16.1201 131.811 16.6719 133.049 17.6367 133.914L36.1045 150.475C37.2814 151.53 37.954 153.039 37.9541 154.622V158.55C37.9541 159.85 38.506 161.088 39.4707 161.953L53.3984 174.442C54.2308 175.189 55.3076 175.602 56.4229 175.602H82.6289C83.7441 175.602 84.821 175.189 85.6533 174.442L86.207 173.945C85.674 174.113 85.115 174.203 84.5469 174.203H59.959C58.5734 174.203 57.2383 173.682 56.2168 172.743L43.1299 160.714C41.9836 159.66 41.3311 158.172 41.3311 156.612V152.844C41.3309 151.563 40.7952 150.342 39.8555 149.479L22.4199 133.451C21.2736 132.397 20.6211 130.909 20.6211 129.35V126.298C20.621 125.018 20.0853 123.796 19.1455 122.933L13.7422 117.966C12.5959 116.912 11.9434 115.424 11.9434 113.864V76.4141C11.9434 74.8546 12.5959 73.3662 13.7422 72.3125L18.2637 68.1572C19.2035 67.2933 19.7383 66.0714 19.7383 64.791V54.79C19.7384 53.2306 20.3909 51.7422 21.5371 50.6885L33.8535 39.3672C34.7934 38.5033 35.3291 37.2824 35.3291 36.002V32.2617C35.3292 30.7023 35.9817 29.2138 37.1279 28.1602L53.8779 12.7637C54.8995 11.8248 56.2345 11.3037 57.6201 11.3037H64.6904C65.4296 11.3037 66.1578 11.1223 66.8115 10.7754L76.8613 5.44238C77.6594 5.01884 78.5492 4.79688 79.4521 4.79688H89.8877C90.6038 4.79693 91.3054 4.93678 91.957 5.2002L91.4229 4.68066C90.5758 3.85788 89.4433 3.39844 88.2656 3.39844H77.0205C76.2969 3.39844 75.5838 3.57228 74.9404 3.90527L64.1885 9.47168C63.4031 9.87829 62.5323 10.0908 61.6484 10.0908H53.957C52.8418 10.0909 51.7649 10.5027 50.9326 11.249L33.1436 27.2021C32.1787 28.0674 31.626 29.3055 31.626 30.6055V34.5039ZM190.374 34.5039C190.374 35.8039 190.926 37.042 191.891 37.9072L204.961 49.6279C206.138 50.6834 206.811 52.1921 206.811 53.7754V64.1133C206.811 65.4133 207.362 66.6513 208.327 67.5166L213.179 71.8682C214.356 72.9236 215.028 74.4323 215.028 76.0156V114.584C215.028 116.167 214.356 117.677 213.179 118.732L207.396 123.917C206.432 124.782 205.88 126.02 205.88 127.32V130.511C205.88 132.094 205.207 133.603 204.03 134.658L185.562 151.219C184.598 152.084 184.046 153.322 184.046 154.622V158.55C184.046 160.133 183.373 161.642 182.196 162.697L168.269 175.188C167.253 176.098 165.939 176.602 164.577 176.602H138.371C137.797 176.602 137.232 176.51 136.694 176.339L137.307 176.876C138.134 177.601 139.195 178 140.292 178H168.11C169.208 178 170.268 177.601 171.096 176.876L185.868 163.928C186.856 163.062 187.424 161.808 187.424 160.49V156.397C187.424 154.792 188.115 153.264 189.32 152.208L208.825 135.112C209.813 134.246 210.381 132.993 210.381 131.675V128.34C210.381 126.735 211.072 125.207 212.277 124.15L218.444 118.745C219.432 117.879 220 116.626 220 115.308V75.6133C220 74.2953 219.432 73.0418 218.444 72.1758L213.256 67.6279C212.051 66.5715 211.359 65.0439 211.359 63.4385V52.7578C211.359 51.4398 210.792 50.1864 209.804 49.3203L195.974 37.1982C194.768 36.1419 194.077 34.615 194.077 33.0098V28.9463C194.077 27.6282 193.51 26.3749 192.521 25.5088L173.688 9.00195C172.861 8.27677 171.8 7.87793 170.702 7.87793H162.396C161.53 7.87793 160.676 7.67358 159.902 7.28223L148.451 1.4873C147.818 1.16675 147.118 1 146.408 1H134.358C133.199 1.00002 132.083 1.44631 131.239 2.24707L130.648 2.80664C131.305 2.53906 132.013 2.39844 132.734 2.39844H143.979C144.863 2.39844 145.734 2.61098 146.52 3.01758L157.271 8.58398C157.915 8.91698 158.628 9.0908 159.352 9.09082H167.043C168.405 9.0909 169.719 9.59438 170.734 10.5049L188.524 26.458C189.701 27.5134 190.374 29.0221 190.374 30.6055V34.5039ZM26.9229 33.0098C26.9227 34.615 26.2316 36.1419 25.0264 37.1982L11.1963 49.3203C10.2083 50.1864 9.64062 51.4398 9.64062 52.7578V63.4385C9.64062 65.0439 8.94946 66.5715 7.74414 67.6279L2.55566 72.1758C1.56763 73.0418 1.00009 74.2953 1 75.6133V115.308C1.00007 116.626 1.56761 117.879 2.55566 118.745L8.72266 124.15C9.92789 125.207 10.6191 126.735 10.6191 128.34V131.675C10.6191 132.993 11.1867 134.246 12.1748 135.112L31.6797 152.208C32.885 153.264 33.5761 154.792 33.5762 156.397V160.49C33.5762 161.808 34.1439 163.062 35.1318 163.928L49.9043 176.876C50.7316 177.601 51.7923 178 52.8896 178H80.708C81.8054 178 82.8661 177.601 83.6934 176.876L84.3047 176.339C83.7669 176.51 83.2025 176.602 82.6289 176.602H56.4229C55.0608 176.602 53.7469 176.098 52.7314 175.188L38.8037 162.697C37.6268 161.642 36.9541 160.133 36.9541 158.55V154.622C36.954 153.322 36.4023 152.084 35.4375 151.219L16.9697 134.658C15.7928 133.603 15.1201 132.094 15.1201 130.511V127.32C15.1201 126.02 14.5683 124.782 13.6035 123.917L7.82129 118.732C6.64434 117.677 5.97168 116.167 5.97168 114.584V76.0156C5.97168 74.4323 6.64442 72.9236 7.82129 71.8682L12.6729 67.5166C13.6377 66.6513 14.1895 65.4133 14.1895 64.1133V53.7754C14.1895 52.1921 14.8622 50.6833 16.0391 49.6279L29.1094 37.9072C30.0742 37.042 30.626 35.8039 30.626 34.5039V30.6055C30.626 29.0221 31.2987 27.5134 32.4756 26.458L50.2656 10.5049C51.281 9.59438 52.595 9.09089 53.957 9.09082H61.6484C62.372 9.0908 63.0852 8.91699 63.7285 8.58398L74.4805 3.01758C75.2658 2.61099 76.1367 2.39844 77.0205 2.39844H88.2656C88.987 2.39844 89.6945 2.53928 90.3506 2.80664L89.7607 2.24707C88.9174 1.44631 87.8015 1.00001 86.6416 1H74.5918C73.8825 1 73.1825 1.16675 72.5488 1.4873L61.0977 7.28223C60.3241 7.67358 59.4699 7.87793 58.6035 7.87793H50.2979C49.2003 7.87793 48.1389 8.27678 47.3115 9.00195L28.4785 25.5088C27.4904 26.3749 26.9229 27.6282 26.9229 28.9463V33.0098ZM195.077 33.0098C195.077 34.3277 195.645 35.5803 196.633 36.4463L210.463 48.5684C211.668 49.6248 212.359 51.1525 212.359 52.7578V63.4385C212.359 64.7565 212.927 66.0099 213.915 66.876L219.104 71.4238C220.309 72.4802 221 74.008 221 75.6133V115.308C221 116.913 220.309 118.441 219.104 119.497L212.937 124.902C211.948 125.768 211.381 127.022 211.381 128.34V131.675C211.381 133.28 210.69 134.808 209.484 135.864L189.979 152.96C188.991 153.826 188.424 155.08 188.424 156.397V160.49C188.424 162.095 187.732 163.623 186.527 164.68L171.755 177.628C170.746 178.512 169.451 179 168.11 179H140.292C138.952 179 137.657 178.512 136.647 177.628L122.555 165.274L122.884 164.898L123.024 164.736L121.355 163.239L121.689 162.867L121.814 162.728L120.156 161.203L120.495 160.835L120.601 160.719L118.957 159.167L119.301 158.803L119.385 158.712L117.758 157.13L118.106 156.771L118.167 156.708L117.125 155.662H116.554V19.9414L116.544 19.9326L116.554 19.9219V19.5176H116.926L118.164 18.1699L117.744 17.7715L119.386 16.042L118.943 15.6094L120.603 13.9111L120.495 13.8027L120.143 13.4482L121.818 11.7793L121.689 11.6465L121.341 11.2881L123.031 9.64551L122.539 9.12793L130.551 1.52148C131.58 0.544779 132.942 1.56412e-05 134.358 0H146.408C147.275 0 148.13 0.204208 148.903 0.595703L160.354 6.38965C160.987 6.71036 161.687 6.87793 162.396 6.87793H170.702C172.043 6.87793 173.338 7.36529 174.348 8.25L193.181 24.7568C194.386 25.8133 195.077 27.341 195.077 28.9463V33.0098Z" fill="url(#paint0_linear_25_1717)"/>
<defs>
<linearGradient id="paint0_linear_25_1717" x1="105.962" y1="229.083" x2="105.962" y2="0.499996" gradientUnits="userSpaceOnUse">
<stop stop-opacity="0"/>
<stop offset="0.309967" stop-color="#484848"/>
</linearGradient>
</defs>
</svg>
