<svg width="248" height="248" viewBox="0 0 248 248" fill="none" xmlns="http://www.w3.org/2000/svg">
<line y1="123.5" x2="63.8235" y2="123.5" stroke="#D90CB7"/>
<line x1="129.471" y1="91.5898" x2="202.412" y2="91.5899" stroke="#D90CB7"/>
<line x1="43.7656" y1="91.5898" x2="118.53" y2="91.5898" stroke="#D90CB7"/>
<line x1="63.4677" y1="182.001" x2="117.262" y2="127.295" stroke="#D90CB7"/>
<line x1="182.906" y1="181.789" x2="130.024" y2="127.083" stroke="#D90CB7"/>
<line x1="182.354" y1="123.5" x2="247.089" y2="123.5" stroke="#D90CB7"/>
<line x1="124.5" y1="-2.18557e-08" x2="124.5" y2="62.8052" stroke="#D90CB7"/>
<line x1="122.676" y1="196.031" x2="122.676" y2="247.564" stroke="#D90CB7"/>
<line x1="63.4121" y1="31.9102" x2="63.4121" y2="215.495" stroke="#D90CB7"/>
<line x1="182.854" y1="31.9102" x2="182.854" y2="215.495" stroke="#D90CB7"/>
<line x1="31" y1="63.3242" x2="217.805" y2="63.3242" stroke="#D90CB7"/>
<line x1="31" y1="181.852" x2="217.805" y2="181.852" stroke="#D90CB7"/>
<circle cx="123.088" cy="124.911" r="86.1176" stroke="#D90CB7"/>
<circle cx="124.438" cy="75.2019" r="10.4675" stroke="#D90CB7" stroke-width="3"/>
<path d="M117.617 182.352L117.617 91.1751" stroke="#D90CB7" stroke-width="3"/>
<path d="M129.471 182.352L129.471 91.1751" stroke="#D90CB7" stroke-width="3"/>
<path d="M183.721 123.087L129.015 92.543" stroke="#D90CB7" stroke-width="3"/>
<path d="M62.9121 123.543L118.074 92.543" stroke="#D90CB7" stroke-width="3"/>
</svg>
