<svg preserveAspectRatio="none" width="100%" height="100%" overflow="visible" style="display: block;" viewBox="0 0 247.089 247.564" fill="none" xmlns="http://www.w3.org/2000/svg">
<g id="Group 2147224092">
<line id="Line 279" y1="123.5" x2="63.8235" y2="123.5" stroke="var(--stroke-0, #2E2E2E)"/>
<line id="Line 293" x1="129.471" y1="91.5898" x2="202.412" y2="91.5899" stroke="var(--stroke-0, #2E2E2E)"/>
<line id="Line 294" x1="43.7656" y1="91.5898" x2="118.53" y2="91.5898" stroke="var(--stroke-0, #2E2E2E)"/>
<line id="Line 289" x1="63.4677" y1="182.001" x2="117.262" y2="127.295" stroke="var(--stroke-0, #2E2E2E)"/>
<line id="Line 291" x1="182.906" y1="181.789" x2="130.024" y2="127.083" stroke="var(--stroke-0, #2E2E2E)"/>
<line id="Line 288" x1="182.354" y1="123.5" x2="247.089" y2="123.5" stroke="var(--stroke-0, #2E2E2E)"/>
<line id="Line 282" x1="124.5" y1="2.18557e-08" x2="124.5" y2="62.8052" stroke="var(--stroke-0, #2E2E2E)"/>
<line id="Line 283" x1="122.676" y1="196.031" x2="122.676" y2="247.564" stroke="var(--stroke-0, #2E2E2E)"/>
<line id="Line 284" x1="63.4121" y1="31.9102" x2="63.4121" y2="215.495" stroke="var(--stroke-0, #2E2E2E)"/>
<line id="Line 285" x1="182.854" y1="31.9102" x2="182.854" y2="215.495" stroke="var(--stroke-0, #2E2E2E)"/>
<line id="Line 280" x1="31" y1="63.3242" x2="217.805" y2="63.3242" stroke="var(--stroke-0, #2E2E2E)"/>
<line id="Line 281" x1="31" y1="181.852" x2="217.805" y2="181.852" stroke="var(--stroke-0, #2E2E2E)"/>
<circle id="Ellipse 22006" cx="123.088" cy="124.911" r="86.1176" stroke="var(--stroke-0, #2E2E2E)"/>
<circle id="Ellipse 2180" cx="124.438" cy="75.2019" r="10.4675" stroke="var(--stroke-0, #2E2E2E)" stroke-width="3"/>
<path id="Line 286" d="M117.617 182.352L117.617 91.1751" stroke="var(--stroke-0, #2E2E2E)" stroke-width="3"/>
<path id="Line 286_2" d="M129.471 182.352L129.471 91.1751" stroke="var(--stroke-0, #2E2E2E)" stroke-width="3"/>
<path id="Vector 776" d="M183.721 123.087L129.015 92.543" stroke="var(--stroke-0, #2E2E2E)" stroke-width="3"/>
<path id="Vector 777" d="M62.9121 123.543L118.074 92.543" stroke="var(--stroke-0, #2E2E2E)" stroke-width="3"/>
</g>
</svg>
