<svg overflow="visible" style="display: block;" viewBox="0 0 23.2 23.2" fill="none" xmlns="http://www.w3.org/2000/svg">
<g id="Vector">
<path d="M14.6 8.6L17.6 11.6L14.6 14.6M8.6 14.6L5.6 11.6L8.6 8.6M3.6 22.6H19.6C20.3957 22.6 21.1587 22.2839 21.7213 21.7213C22.2839 21.1587 22.6 20.3957 22.6 19.6V3.6C22.6 2.80435 22.2839 2.04129 21.7213 1.47868C21.1587 0.916071 20.3957 0.6 19.6 0.6H3.6C2.80435 0.6 2.04129 0.916071 1.47868 1.47868C0.916071 2.04129 0.6 2.80435 0.6 3.6V19.6C0.6 20.3957 0.916071 21.1587 1.47868 21.7213C2.04129 22.2839 2.80435 22.6 3.6 22.6Z" fill="url(#paint0_linear_0_51)" fill-opacity="0.43"/>
<path d="M14.6 8.6L17.6 11.6L14.6 14.6M8.6 14.6L5.6 11.6L8.6 8.6M3.6 22.6H19.6C20.3957 22.6 21.1587 22.2839 21.7213 21.7213C22.2839 21.1587 22.6 20.3957 22.6 19.6V3.6C22.6 2.80435 22.2839 2.04129 21.7213 1.47868C21.1587 0.916071 20.3957 0.6 19.6 0.6H3.6C2.80435 0.6 2.04129 0.916071 1.47868 1.47868C0.916071 2.04129 0.6 2.80435 0.6 3.6V19.6C0.6 20.3957 0.916071 21.1587 1.47868 21.7213C2.04129 22.2839 2.80435 22.6 3.6 22.6Z" stroke="#848484" stroke-width="1.2" stroke-linecap="round" stroke-linejoin="round"/>
</g>
<defs>
<linearGradient id="paint0_linear_0_51" x1="11.4651" y1="0.208753" x2="11.6418" y2="22.6004" gradientUnits="userSpaceOnUse">
<stop stop-color="#383838"/>
<stop offset="1" stop-color="#383838" stop-opacity="0"/>
</linearGradient>
</defs>
</svg>
