<svg overflow="visible" style="display: block;" viewBox="0 0 35 35" fill="none" xmlns="http://www.w3.org/2000/svg">
<g id="Frame">
<g id="Vector">
<path d="M26.2496 27.3C28.097 27.451 29.9555 27.213 31.7052 26.6015C31.772 25.7781 31.6043 24.9526 31.2216 24.2205C30.8388 23.4885 30.2566 22.8798 29.5423 22.4648C28.828 22.0498 28.0108 21.8456 27.1852 21.8756C26.3597 21.9057 25.5595 22.1689 24.8773 22.6348M26.2482 27.2985L26.2496 27.3438C26.2496 27.6719 26.2321 27.9956 26.1957 28.315C23.5493 29.8333 20.5506 30.6299 17.4996 30.625C14.335 30.625 11.3644 29.785 8.80358 28.315C8.76609 27.9775 8.74807 27.6381 8.74962 27.2985M26.2496 27.3C26.2439 25.6472 25.768 24.0286 24.8773 22.6363ZM24.8773 22.6363C24.0868 21.3964 22.9963 20.3759 21.7067 19.6693C20.4171 18.9627 18.9701 18.5928 17.4996 18.5938C16.0294 18.593 14.5827 18.963 13.2934 19.6696C12.0041 20.3762 10.9138 21.3966 10.1234 22.6363M10.1234 22.6363C9.44118 22.1708 8.64118 21.908 7.81588 21.8781C6.99057 21.8482 6.17367 22.0526 5.45963 22.4675C4.74558 22.8824 4.16355 23.491 3.78083 24.2228C3.39811 24.9546 3.23034 25.7798 3.29691 26.6029C5.04532 27.2179 6.90283 27.455 8.74962 27.2985M10.1234 22.6363C9.23324 24.0288 8.75486 25.6458 8.74962 27.2985ZM21.8746 9.84375C21.8746 11.0041 21.4137 12.1169 20.5932 12.9373C19.7727 13.7578 18.6599 14.2188 17.4996 14.2188C16.3393 14.2188 15.2265 13.7578 14.406 12.9373C13.5856 12.1169 13.1246 11.0041 13.1246 9.84375C13.1246 8.68343 13.5856 7.57063 14.406 6.75016C15.2265 5.92969 16.3393 5.46875 17.4996 5.46875C18.6599 5.46875 19.7727 5.92969 20.5932 6.75016C21.4137 7.57063 21.8746 8.68343 21.8746 9.84375ZM30.6246 14.2188C30.6246 14.6496 30.5398 15.0763 30.3749 15.4744C30.21 15.8725 29.9683 16.2343 29.6636 16.5389C29.3589 16.8436 28.9972 17.0853 28.5991 17.2502C28.201 17.4151 27.7743 17.5 27.3434 17.5C26.9125 17.5 26.4858 17.4151 26.0877 17.2502C25.6896 17.0853 25.3279 16.8436 25.0232 16.5389C24.7185 16.2343 24.4768 15.8725 24.3119 15.4744C24.147 15.0763 24.0621 14.6496 24.0621 14.2188C24.0621 13.3485 24.4078 12.5139 25.0232 11.8986C25.6385 11.2832 26.4731 10.9375 27.3434 10.9375C28.2136 10.9375 29.0482 11.2832 29.6636 11.8986C30.2789 12.5139 30.6246 13.3485 30.6246 14.2188ZM10.9371 14.2188C10.9371 14.6496 10.8523 15.0763 10.6874 15.4744C10.5225 15.8725 10.2808 16.2343 9.97607 16.5389C9.67137 16.8436 9.30965 17.0853 8.91155 17.2502C8.51345 17.4151 8.08677 17.5 7.65587 17.5C7.22497 17.5 6.79829 17.4151 6.40019 17.2502C6.00209 17.0853 5.64037 16.8436 5.33568 16.5389C5.03099 16.2343 4.78929 15.8725 4.62439 15.4744C4.45949 15.0763 4.37462 14.6496 4.37462 14.2188C4.37462 13.3485 4.72032 12.5139 5.33568 11.8986C5.95103 11.2832 6.78563 10.9375 7.65587 10.9375C8.52611 10.9375 9.36071 11.2832 9.97607 11.8986C10.5914 12.5139 10.9371 13.3485 10.9371 14.2188Z" fill="url(#paint0_linear_0_53)" fill-opacity="0.43"/>
<path d="M24.8773 22.6348C25.5595 22.1689 26.3597 21.9057 27.1852 21.8756C28.0108 21.8456 28.828 22.0498 29.5423 22.4648C30.2566 22.8798 30.8388 23.4885 31.2216 24.2205C31.6043 24.9526 31.772 25.7781 31.7052 26.6015C29.9555 27.213 28.097 27.451 26.2496 27.3C26.2439 25.6472 25.768 24.0286 24.8773 22.6363C24.0868 21.3964 22.9963 20.3759 21.7067 19.6693C20.4171 18.9627 18.9701 18.5928 17.4996 18.5938C16.0294 18.593 14.5827 18.963 13.2934 19.6696C12.0041 20.3762 10.9138 21.3966 10.1234 22.6363M26.2482 27.2985L26.2496 27.3438C26.2496 27.6719 26.2321 27.9956 26.1957 28.315C23.5493 29.8333 20.5506 30.6299 17.4996 30.625C14.335 30.625 11.3644 29.785 8.80358 28.315C8.76609 27.9775 8.74807 27.6381 8.74962 27.2985M8.74962 27.2985C6.90283 27.455 5.04532 27.2179 3.29691 26.6029C3.23034 25.7798 3.39811 24.9546 3.78083 24.2228C4.16355 23.491 4.74558 22.8824 5.45963 22.4675C6.17367 22.0526 6.99057 21.8482 7.81588 21.8781C8.64118 21.908 9.44118 22.1708 10.1234 22.6363M8.74962 27.2985C8.75486 25.6458 9.23324 24.0288 10.1234 22.6363M21.8746 9.84375C21.8746 11.0041 21.4137 12.1169 20.5932 12.9373C19.7727 13.7578 18.6599 14.2188 17.4996 14.2188C16.3393 14.2188 15.2265 13.7578 14.406 12.9373C13.5856 12.1169 13.1246 11.0041 13.1246 9.84375C13.1246 8.68343 13.5856 7.57063 14.406 6.75016C15.2265 5.92969 16.3393 5.46875 17.4996 5.46875C18.6599 5.46875 19.7727 5.92969 20.5932 6.75016C21.4137 7.57063 21.8746 8.68343 21.8746 9.84375ZM30.6246 14.2188C30.6246 14.6496 30.5398 15.0763 30.3749 15.4744C30.21 15.8725 29.9683 16.2343 29.6636 16.5389C29.3589 16.8436 28.9972 17.0853 28.5991 17.2502C28.201 17.4151 27.7743 17.5 27.3434 17.5C26.9125 17.5 26.4858 17.4151 26.0877 17.2502C25.6896 17.0853 25.3279 16.8436 25.0232 16.5389C24.7185 16.2343 24.4768 15.8725 24.3119 15.4744C24.147 15.0763 24.0621 14.6496 24.0621 14.2188C24.0621 13.3485 24.4078 12.5139 25.0232 11.8986C25.6385 11.2832 26.4731 10.9375 27.3434 10.9375C28.2136 10.9375 29.0482 11.2832 29.6636 11.8986C30.2789 12.5139 30.6246 13.3485 30.6246 14.2188ZM10.9371 14.2188C10.9371 14.6496 10.8523 15.0763 10.6874 15.4744C10.5225 15.8725 10.2808 16.2343 9.97607 16.5389C9.67137 16.8436 9.30965 17.0853 8.91155 17.2502C8.51345 17.4151 8.08677 17.5 7.65587 17.5C7.22497 17.5 6.79829 17.4151 6.40019 17.2502C6.00209 17.0853 5.64037 16.8436 5.33568 16.5389C5.03099 16.2343 4.78929 15.8725 4.62439 15.4744C4.45949 15.0763 4.37462 14.6496 4.37462 14.2188C4.37462 13.3485 4.72032 12.5139 5.33568 11.8986C5.95103 11.2832 6.78563 10.9375 7.65587 10.9375C8.52611 10.9375 9.36071 11.2832 9.97607 11.8986C10.5914 12.5139 10.9371 13.3485 10.9371 14.2188Z" stroke="#848484" stroke-width="1.2" stroke-linecap="round" stroke-linejoin="round"/>
</g>
</g>
<defs>
<linearGradient id="paint0_linear_0_53" x1="17.3268" y1="5.02137" x2="17.5055" y2="30.6259" gradientUnits="userSpaceOnUse">
<stop stop-color="#D90CB7"/>
<stop offset="1" stop-color="#D90CB7" stop-opacity="0"/>
</linearGradient>
</defs>
</svg>
