<svg overflow="visible" style="display: block;" viewBox="0 0 24.0521 21.5993" fill="none" xmlns="http://www.w3.org/2000/svg">
<g id="hero_framework">
<path id="Vector" d="M5.43251 1.4906C5.80344 0.934202 6.4279 0.6 7.09661 0.6H16.9555C17.6242 0.6 18.2486 0.934202 18.6196 1.4906L23.1161 8.23545C23.645 9.0287 23.5404 10.0849 22.8662 10.7591L13.4402 20.1851C12.6592 20.9661 11.3929 20.9661 10.6118 20.1851L1.18583 10.7591C0.511701 10.0849 0.407113 9.02869 0.935943 8.23545L5.43251 1.4906Z" stroke="#848484" stroke-width="1.2" stroke-linecap="round" stroke-linejoin="round"/>
<path id="Vector_2" d="M12.026 4.79922L13.426 7.59912H16.2259L14.126 9.69905L14.8259 11.799L12.026 10.399L9.22613 11.799L9.92611 9.69905L7.82618 7.59912H10.6261L12.026 4.79922Z" fill="rgba(132,132,132,0.43)" stroke="#848484" stroke-width="1.2" stroke-linecap="round" stroke-linejoin="round"/>
</g>
</svg>
