<svg overflow="visible" style="display: block;" viewBox="0 0 48 48" fill="none" xmlns="http://www.w3.org/2000/svg">
<g id="Component 2147224167">
<path id="Vector" d="M37.5 17.3077L34.125 15.355M37.5 17.3077V20.6538M37.5 17.3077L34.125 19.2604M10.5 17.3077L13.875 15.355M10.5 17.3077L13.875 19.2604M10.5 17.3077V20.6538M24 25.1154L27.375 23.1627M24 25.1154L20.625 23.1627M24 25.1154V28.4615M24 38.5L27.375 36.5473M24 38.5V35.1538M24 38.5L20.625 36.5473M20.625 11.4512L24 9.5L27.375 11.4527M37.5 27.3462V30.6923L34.125 32.645M13.875 32.645L10.5 30.6923V27.3462" stroke="#848484" stroke-width="1.2" stroke-linecap="round" stroke-linejoin="round"/>
<path id="Vector 832" d="M10.5 30.5V17.5L23.5 9.5L37.5 17V30.5L23.5 38.5L10.5 30.5Z" fill="url(#paint0_linear_0_57)"/>
</g>
<defs>
<linearGradient id="paint0_linear_0_57" x1="27" y1="-5.5" x2="22.5" y2="28.5" gradientUnits="userSpaceOnUse">
<stop stop-color="#383838"/>
<stop offset="1" stop-color="#383838" stop-opacity="0"/>
</linearGradient>
</defs>
</svg>
