<svg overflow="visible" style="display: block;" viewBox="0 0 36 36" fill="none" xmlns="http://www.w3.org/2000/svg">
<g id="Frame">
<path id="Vector" d="M11.25 21.375V24.75M15.75 18V24.75M20.25 14.625V24.75M24.75 11.25V24.75M9 30.375H27C27.8951 30.375 28.7535 30.0194 29.3865 29.3865C30.0194 28.7535 30.375 27.8951 30.375 27V9C30.375 8.10489 30.0194 7.24645 29.3865 6.61351C28.7535 5.98058 27.8951 5.625 27 5.625H9C8.10489 5.625 7.24645 5.98058 6.61351 6.61351C5.98058 7.24645 5.625 8.10489 5.625 9V27C5.625 27.8951 5.98058 28.7535 6.61351 29.3865C7.24645 30.0194 8.10489 30.375 9 30.375Z" stroke="#848484" stroke-width="1.2" stroke-linecap="round" stroke-linejoin="round"/>
</g>
</svg>
