<svg overflow="visible" style="display: block;" viewBox="0 0 28.9307 24.4147" fill="none" xmlns="http://www.w3.org/2000/svg">
<g id="Vector">
<path d="M4.14535 9.472C3.77862 12.2794 3.56009 15.1042 3.49069 17.9347C7.32909 19.538 11.0043 21.5071 14.4654 23.8147C17.9269 21.507 21.6025 19.5379 25.4414 17.9347C25.3719 15.1042 25.1534 12.2794 24.7867 9.472M4.14402 9.472C2.97283 9.07831 1.79105 8.71684 0.600019 8.388C4.95122 5.33723 9.59601 2.7283 14.4654 0.6C19.3347 2.72785 23.9794 5.33633 28.3307 8.38667C27.136 8.71733 25.9534 9.08 24.7867 9.472M4.14402 9.472C7.70218 10.6683 11.1546 12.1588 14.4654 13.928C17.7757 12.1587 21.2289 10.6683 24.7867 9.472M7.46535 15.9427C7.73057 15.9427 7.98492 15.8373 8.17246 15.6498C8.36 15.4622 8.46535 15.2079 8.46535 14.9427C8.46535 14.6775 8.36 14.4231 8.17246 14.2356C7.98492 14.048 7.73057 13.9427 7.46535 13.9427C7.20014 13.9427 6.94578 14.048 6.75825 14.2356C6.57071 14.4231 6.46535 14.6775 6.46535 14.9427C6.46535 15.2079 6.57071 15.4622 6.75825 15.6498C6.94578 15.8373 7.20014 15.9427 7.46535 15.9427ZM7.46535 15.9427V11.0427C9.72766 9.63645 12.0644 8.35369 14.4654 7.2M5.12269 22.6C5.86665 21.8579 6.4566 20.976 6.85864 20.0051C7.26067 19.0343 7.46686 17.9935 7.46535 16.9427V14.9427" fill="url(#paint0_linear_0_60)" fill-opacity="0.43"/>
<path d="M4.14535 9.472C3.77862 12.2794 3.56009 15.1042 3.49069 17.9347C7.32909 19.538 11.0043 21.5071 14.4654 23.8147C17.9269 21.507 21.6025 19.5379 25.4414 17.9347C25.3719 15.1042 25.1534 12.2794 24.7867 9.472M24.7867 9.472C25.9534 9.08 27.136 8.71733 28.3307 8.38667C23.9794 5.33633 19.3347 2.72785 14.4654 0.6C9.59601 2.7283 4.95122 5.33723 0.600019 8.388C1.79105 8.71684 2.97283 9.07831 4.14402 9.472C7.70218 10.6683 11.1546 12.1588 14.4654 13.928C17.7757 12.1587 21.2289 10.6683 24.7867 9.472ZM7.46535 15.9427C7.73057 15.9427 7.98492 15.8373 8.17246 15.6498C8.36 15.4622 8.46535 15.2079 8.46535 14.9427C8.46535 14.6775 8.36 14.4231 8.17246 14.2356C7.98492 14.048 7.73057 13.9427 7.46535 13.9427C7.20014 13.9427 6.94578 14.048 6.75825 14.2356C6.57071 14.4231 6.46535 14.6775 6.46535 14.9427C6.46535 15.2079 6.57071 15.4622 6.75825 15.6498C6.94578 15.8373 7.20014 15.9427 7.46535 15.9427ZM7.46535 15.9427V11.0427C9.72766 9.63645 12.0644 8.35369 14.4654 7.2M5.12269 22.6C5.86665 21.8579 6.4566 20.976 6.85864 20.0051C7.26067 19.0343 7.46686 17.9935 7.46535 16.9427V14.9427" stroke="#848484" stroke-width="1.2" stroke-linecap="round" stroke-linejoin="round"/>
</g>
<defs>
<linearGradient id="paint0_linear_0_60" x1="14.2953" y1="0.187151" x2="14.4514" y2="23.8156" gradientUnits="userSpaceOnUse">
<stop stop-color="#383838"/>
<stop offset="1" stop-color="#383838" stop-opacity="0"/>
</linearGradient>
</defs>
</svg>
