<svg overflow="visible" style="display: block;" viewBox="0 0 30.536 30.5334" fill="none" xmlns="http://www.w3.org/2000/svg">
<g id="ux_strategy_product_design">
<path id="Vector" d="M20.1573 0.6H4.51147C2.35122 0.6 0.6 2.35122 0.6 4.51147V20.1573C0.6 22.3176 2.35122 24.0688 4.51147 24.0688H20.1573C22.3176 24.0688 24.0688 22.3176 24.0688 20.1573V4.51147C24.0688 2.35122 22.3176 0.6 20.1573 0.6Z" stroke="#848484" stroke-width="1.2" stroke-linecap="round" stroke-linejoin="round"/>
<path id="Vector_2" d="M26.0245 6.46458H10.3787C8.21841 6.46458 6.46719 8.21581 6.46719 10.3761V26.0219C6.46719 28.1822 8.21841 29.9334 10.3787 29.9334H26.0245C28.1848 29.9334 29.936 28.1822 29.936 26.0219V10.3761C29.936 8.21581 28.1848 6.46458 26.0245 6.46458Z" stroke="#848484" stroke-width="1.2" stroke-linecap="round" stroke-linejoin="round"/>
<path id="Vector_3" d="M12.8227 13.0844L12.8227 29.4549" stroke="#848484" stroke-width="1.2" stroke-linecap="round" stroke-linejoin="round"/>
<path id="Vector_4" d="M6.46719 12.3344L29.936 12.3344" stroke="#848484" stroke-width="1.2" stroke-linecap="round" stroke-linejoin="round"/>
</g>
</svg>
